<?xml version="1.0" encoding="utf-8"?>
<!-- Generator: Adobe Illustrator 22.1.0, SVG Export Plug-In . SVG Version: 6.00 Build 0)  -->
<svg version="1.1" id="d367b3a4-9f94-41ab-9b15-47294bf0cdf4"
	 xmlns="http://www.w3.org/2000/svg" xmlns:xlink="http://www.w3.org/1999/xlink" x="0px" y="0px" viewBox="0 0 910.84 383.58"
	 enable-background="new 0 0 910.84 383.58" xml:space="preserve">
<title>ordinary day</title>
<g opacity="0.2">
	<path fill="#0075D5" d="M343.53,205.09c0-18.53-5.71-35.37-15-47.9c10.7696-22.3675,1.3676-49.2305-20.9999-60.0001
		c-22.3675-10.7696-49.2305-1.3676-60,20.9999c-5.9333,12.323-5.9333,26.6771,0,39.0001c-9.31,12.53-15,29.37-15,47.9
		s5.71,35.37,15,47.9c-10.7696,22.3675-1.3676,49.2305,20.9999,60.0001c22.3676,10.7696,49.2305,1.3676,60.0001-20.9999
		c5.9333-12.3231,5.9333-26.6771,0-39.0002C337.81,240.46,343.53,223.62,343.53,205.09z"/>
	<path opacity="0.1" fill="#0075D5" enable-background="new    " d="M343.53,205.09c0-18.53-5.71-35.37-15-47.9
		c10.7696-22.3675,1.3676-49.2305-20.9999-60.0001c-22.3675-10.7696-49.2305-1.3676-60,20.9999
		c-5.9333,12.323-5.9333,26.6771,0,39.0001c-9.31,12.53-15,29.37-15,47.9s5.71,35.37,15,47.9
		c-10.7696,22.3675-1.3676,49.2305,20.9999,60.0001c22.3676,10.7696,49.2305,1.3676,60.0001-20.9999
		c5.9333-12.3231,5.9333-26.6771,0-39.0002C337.81,240.46,343.53,223.62,343.53,205.09z"/>
	<path fill="#0075D5" d="M346.17,205.09c0-18.53-5.71-35.37-15-47.9c10.7696-22.3675,1.3676-49.2305-20.9999-60.0001
		c-22.3675-10.7696-49.2305-1.3676-60,20.9999c-5.9333,12.323-5.9333,26.6771,0,39.0001c-9.31,12.53-15,29.37-15,47.9
		s5.71,35.37,15,47.9c-10.7696,22.3675-1.3676,49.2305,20.9999,60.0001c22.3676,10.7696,49.2305,1.3676,60.0001-20.9999
		c5.9333-12.3231,5.9333-26.6771,0-39.0002C340.42,240.46,346.17,223.62,346.17,205.09z"/>
	<polygon fill="#0075D5" points="295.94,375.62 285.36,375.62 290.65,201.12 	"/>
	<polygon fill="#0075D5" points="291.97,244.73 326.34,230.2 291.97,248.71 	"/>
	<polygon fill="#0075D5" points="288.85,260.61 278.75,248.71 288.65,267.22 	"/>
</g>
<g opacity="0.2">
	<path fill="#0075D5" d="M424.17,264.97c0-12-3.69-22.86-9.71-31c6.959-14.4561,0.8815-31.8164-13.5745-38.7755
		c-14.4561-6.959-31.8165-0.8815-38.7755,13.5745c-3.8333,7.963-3.8333,17.2379,0,25.2009c-6,8.1-9.71,19-9.71,31
		s3.69,22.86,9.71,31c-6.959,14.4561-0.8815,31.8164,13.5745,38.7755s31.8164,0.8815,38.7755-13.5745
		c3.8333-7.963,3.8333-17.2379,0-25.2009C420.47,287.79,424.17,276.95,424.17,264.97z"/>
	<path opacity="0.1" fill="#0075D5" enable-background="new    " d="M424.17,264.97c0-12-3.69-22.86-9.71-31
		c6.959-14.4561,0.8815-31.8164-13.5745-38.7755c-14.4561-6.959-31.8165-0.8815-38.7755,13.5745
		c-3.8333,7.963-3.8333,17.2379,0,25.2009c-6,8.1-9.71,19-9.71,31s3.69,22.86,9.71,31
		c-6.959,14.4561-0.8815,31.8164,13.5745,38.7755s31.8164,0.8815,38.7755-13.5745c3.8333-7.963,3.8333-17.2379,0-25.2009
		C420.47,287.79,424.17,276.95,424.17,264.97z"/>
	<path fill="#0075D5" d="M425.88,264.97c0-12-3.69-22.86-9.71-31c6.959-14.4561,0.8815-31.8164-13.5745-38.7755
		c-14.4561-6.959-31.8165-0.8815-38.7755,13.5745c-3.8333,7.963-3.8333,17.2379,0,25.2009c-6,8.1-9.71,19-9.71,31
		s3.69,22.86,9.71,31c-6.959,14.4561-0.8815,31.8164,13.5745,38.7755s31.8164,0.8815,38.7755-13.5745
		c3.8333-7.963,3.8333-17.2379,0-25.2009C422.18,287.79,425.88,276.95,425.88,264.97z"/>
	<polygon fill="#0075D5" points="393.41,375.19 386.57,375.19 389.99,262.41 	"/>
	<polygon fill="#0075D5" points="390.85,290.6 413.06,281.2 390.85,293.17 	"/>
	<polygon fill="#0075D5" points="388.83,300.86 382.3,293.17 388.7,305.13 	"/>
</g>
<rect x="314.43" y="332.75" fill="#535461" width="1.22" height="18.37"/>
<rect x="313.21" y="353.57" fill="#535461" width="3.06" height="21.43"/>
<rect x="378.11" y="353.57" fill="#535461" width="3.06" height="21.43"/>
<rect x="313.21" y="353.57" opacity="0.1" enable-background="new    " width="3.06" height="21.43"/>
<rect x="378.11" y="353.57" opacity="0.1" enable-background="new    " width="3.06" height="21.43"/>
<rect x="379.34" y="332.7501" fill="#535461" width="1.22" height="18.37"/>
<rect x="314.43" y="332.75" opacity="0.1" enable-background="new    " width="1.22" height="18.37"/>
<rect x="379.34" y="332.7501" opacity="0.1" enable-background="new    " width="1.22" height="18.37"/>
<rect x="308.92" y="331.53" fill="#535461" width="77.15" height="3.67"/>
<rect x="308.92" y="337.65" fill="#535461" width="77.15" height="3.67"/>
<rect x="308.92" y="343.78" fill="#535461" width="77.15" height="3.67"/>
<rect x="308.92" y="350.51" fill="#535461" width="77.15" height="6.74"/>
<rect x="214.93" y="110.78" fill="#E0E0E0" width="27.55" height="53.27"/>
<polygon fill="#EEEEEE" points="270.96,192.53 270.96,374.39 23.57,374.39 23.57,192.53 44.39,179.73 63.99,167.68 147.57,116.3 "/>
<polygon opacity="0.1" enable-background="new    " points="239.73,374.39 239.73,183.12 236.05,185.38 236.05,374.39 "/>
<rect x="119.71" y="289.59" fill="#0075D5" width="55.11" height="84.5"/>
<circle fill="#535461" cx="166.55" cy="331.84" r="2.45"/>
<rect x="214.93" y="111.4" opacity="0.1" enable-background="new    " width="27.55" height="3.06"/>
<rect x="210.03" y="107.72" fill="#E0E0E0" width="36.74" height="6.12"/>
<rect x="23.57" y="235.39" opacity="0.1" enable-background="new    " width="247.38" height="4.9"/>
<rect x="23.57" y="234.78" fill="#FFFFFF" width="247.38" height="4.9"/>
<rect x="232.99" y="107.72" opacity="0.1" enable-background="new    " width="6.74" height="56.33"/>
<rect x="228.09" y="108.03" opacity="0.1" enable-background="new    " width="1.84" height="56.33"/>
<polygon opacity="0.1" enable-background="new    " points="264.83,185.18 264.83,374.39 245.24,374.39 245.24,179.73 "/>
<polygon opacity="0.1" enable-background="new    " points="58.48,167.68 58.48,374.39 38.88,374.39 38.88,179.73 "/>
<polygon opacity="0.1" enable-background="new    " points="33.37,374.39 33.37,183.12 29.7,185.38 29.7,374.39 "/>
<polygon opacity="0.1" enable-background="new    " points="147.57,96.09 0,203.25 9.8,219.17 147.57,125.48 285.35,219.17 
	295.14,203.25 "/>
<polygon fill="#0075D5" points="147.57,94.86 0,202.02 9.8,217.94 147.57,124.26 285.35,217.94 295.14,202.02 "/>
<rect x="44.09" y="268.77" opacity="0.7" fill="#0075D5" enable-background="new    " width="51.44" height="51.44"/>
<rect x="41.94" y="318.67" opacity="0.1" enable-background="new    " width="55.11" height="6.12"/>
<rect x="41.94" y="317.45" fill="#535461" width="55.11" height="6.12"/>
<polygon opacity="0.15" fill="#FFFFFF" enable-background="new    " points="65.59,269.07 44.39,298.32 44.39,283.42 56.31,269.07 
	"/>
<polygon opacity="0.15" fill="#FFFFFF" enable-background="new    " points="83.8,269.07 44.39,310.48 44.39,303.17 73.8,269.07 "/>
<line fill="none" stroke="#535461" stroke-width="2" stroke-miterlimit="10" x1="44.09" y1="294.48" x2="95.52" y2="294.48"/>
<line fill="none" stroke="#535461" stroke-width="2" stroke-miterlimit="10" x1="44.39" y1="269.07" x2="95.83" y2="269.07"/>
<line fill="none" stroke="#535461" stroke-width="2" stroke-miterlimit="10" x1="69.81" y1="268.77" x2="69.81" y2="320.2"/>
<line fill="none" stroke="#535461" stroke-width="2" stroke-miterlimit="10" x1="95.22" y1="269.07" x2="95.22" y2="320.51"/>
<line fill="none" stroke="#535461" stroke-width="2" stroke-miterlimit="10" x1="44.39" y1="268.46" x2="44.39" y2="319.9"/>
<rect x="199" y="268.76" opacity="0.7" fill="#0075D5" enable-background="new    " width="51.44" height="51.44"/>
<rect x="197.47" y="318.68" opacity="0.1" enable-background="new    " width="55.11" height="6.12"/>
<rect x="197.47" y="317.45" fill="#535461" width="55.11" height="6.12"/>
<polygon opacity="0.15" fill="#FFFFFF" enable-background="new    " points="228.94,269.07 250.14,298.32 250.14,283.42 
	238.22,269.07 "/>
<polygon opacity="0.15" fill="#FFFFFF" enable-background="new    " points="210.73,269.07 250.14,310.48 250.14,303.17 
	220.73,269.07 "/>
<line fill="none" stroke="#535461" stroke-width="2" stroke-miterlimit="10" x1="250.44" y1="294.48" x2="199.01" y2="294.48"/>
<line fill="none" stroke="#535461" stroke-width="2" stroke-miterlimit="10" x1="250.14" y1="269.07" x2="198.7" y2="269.07"/>
<line fill="none" stroke="#535461" stroke-width="2" stroke-miterlimit="10" x1="224.73" y1="268.77" x2="224.73" y2="320.2"/>
<line fill="none" stroke="#535461" stroke-width="2" stroke-miterlimit="10" x1="199.31" y1="269.07" x2="199.31" y2="320.51"/>
<line fill="none" stroke="#535461" stroke-width="2" stroke-miterlimit="10" x1="250.14" y1="268.46" x2="250.14" y2="319.9"/>
<rect x="121.24" y="164.05" opacity="0.7" fill="#0075D5" enable-background="new    " width="51.44" height="51.44"/>
<rect x="119.71" y="213.97" opacity="0.1" enable-background="new    " width="55.11" height="6.12"/>
<rect x="119.71" y="212.74" fill="#535461" width="55.11" height="6.12"/>
<polygon opacity="0.15" fill="#FFFFFF" enable-background="new    " points="151.17,164.36 172.37,193.61 172.37,178.71 
	160.46,164.36 "/>
<polygon opacity="0.15" fill="#FFFFFF" enable-background="new    " points="132.96,164.36 172.37,205.77 172.37,198.46 
	142.96,164.36 "/>
<line fill="none" stroke="#535461" stroke-width="2" stroke-miterlimit="10" x1="172.68" y1="189.78" x2="121.24" y2="189.78"/>
<line fill="none" stroke="#535461" stroke-width="2" stroke-miterlimit="10" x1="172.37" y1="164.36" x2="120.94" y2="164.36"/>
<line fill="none" stroke="#535461" stroke-width="2" stroke-miterlimit="10" x1="146.96" y1="164.06" x2="146.96" y2="215.49"/>
<line fill="none" stroke="#535461" stroke-width="2" stroke-miterlimit="10" x1="121.55" y1="164.36" x2="121.55" y2="215.8"/>
<line fill="none" stroke="#535461" stroke-width="2" stroke-miterlimit="10" x1="172.37" y1="163.75" x2="172.37" y2="215.19"/>
<rect x="119.71" y="362.15" fill="#535461" width="55.11" height="12.25"/>
<rect x="665.91" y="234.17" fill="#E0E0E0" width="192.27" height="140.22"/>
<polygon opacity="0.1" enable-background="new    " points="844.1,374.39 844.1,183.12 840.42,185.38 840.42,374.39 "/>
<polygon opacity="0.1" enable-background="new    " points="854.51,374.39 854.51,183.12 850.83,185.38 850.83,374.39 "/>
<rect x="665.91" y="237.23" opacity="0.1" enable-background="new    " width="192.27" height="15.92"/>
<polygon fill="#0075D5" points="876.55,250.09 583.86,250.09 583.86,115.99 828.79,115.99 "/>
<polygon opacity="0.1" enable-background="new    " points="876.55,250.09 583.86,250.09 583.86,115.99 828.79,115.99 "/>
<rect x="667.75" y="234.17" opacity="0.1" enable-background="new    " width="15.92" height="140.22"/>
<rect x="625.8" y="110.78" fill="#E0E0E0" width="27.55" height="53.27"/>
<polygon fill="#EEEEEE" points="681.83,192.53 681.83,374.39 434.45,374.39 434.45,192.53 455.27,179.73 474.86,167.68 
	558.45,116.3 "/>
<rect x="530.59" y="289.59" fill="#0075D5" width="55.11" height="84.5"/>
<circle fill="#535461" cx="577.43" cy="331.84" r="2.45"/>
<rect x="625.8" y="111.4" opacity="0.1" enable-background="new    " width="27.55" height="3.06"/>
<rect x="620.9" y="107.72" fill="#E0E0E0" width="36.74" height="6.12"/>
<rect x="434.45" y="235.39" opacity="0.1" enable-background="new    " width="247.38" height="4.9"/>
<rect x="434.45" y="234.78" fill="#FFFFFF" width="247.38" height="4.9"/>
<rect x="643.87" y="107.72" opacity="0.1" enable-background="new    " width="6.74" height="56.33"/>
<rect x="638.97" y="108.03" opacity="0.1" enable-background="new    " width="1.84" height="56.33"/>
<polygon opacity="0.1" enable-background="new    " points="675.71,185.18 675.71,374.39 656.11,374.39 656.11,179.73 "/>
<polygon opacity="0.1" enable-background="new    " points="469.35,167.68 469.35,374.39 449.76,374.39 449.76,179.73 "/>
<polygon opacity="0.1" enable-background="new    " points="444.25,374.39 444.25,183.12 440.57,185.38 440.57,374.39 "/>
<polygon opacity="0.1" enable-background="new    " points="558.45,96.09 410.87,203.25 420.67,219.17 558.45,125.48 696.22,219.17 
	706.02,203.25 "/>
<polygon fill="#0075D5" points="558.45,94.86 410.87,202.02 420.67,217.94 558.45,124.26 696.22,217.94 706.02,202.02 "/>
<rect x="454.96" y="268.77" opacity="0.7" fill="#0075D5" enable-background="new    " width="51.44" height="51.44"/>
<rect x="452.82" y="318.67" opacity="0.1" enable-background="new    " width="55.11" height="6.12"/>
<rect x="452.82" y="317.45" fill="#535461" width="55.11" height="6.12"/>
<polygon opacity="0.15" fill="#FFFFFF" enable-background="new    " points="476.47,269.07 455.27,298.32 455.27,283.42 
	467.18,269.07 "/>
<polygon opacity="0.15" fill="#FFFFFF" enable-background="new    " points="494.68,269.07 455.27,310.48 455.27,303.17 
	484.68,269.07 "/>
<line fill="none" stroke="#535461" stroke-width="2" stroke-miterlimit="10" x1="454.96" y1="294.48" x2="506.4" y2="294.48"/>
<line fill="none" stroke="#535461" stroke-width="2" stroke-miterlimit="10" x1="455.27" y1="269.07" x2="506.7" y2="269.07"/>
<line fill="none" stroke="#535461" stroke-width="2" stroke-miterlimit="10" x1="480.68" y1="268.77" x2="480.68" y2="320.2"/>
<line fill="none" stroke="#535461" stroke-width="2" stroke-miterlimit="10" x1="506.09" y1="269.07" x2="506.09" y2="320.51"/>
<line fill="none" stroke="#535461" stroke-width="2" stroke-miterlimit="10" x1="455.27" y1="268.46" x2="455.27" y2="319.9"/>
<rect x="609.88" y="268.76" opacity="0.7" fill="#0075D5" enable-background="new    " width="51.44" height="51.44"/>
<rect x="608.35" y="318.68" opacity="0.1" enable-background="new    " width="55.11" height="6.12"/>
<rect x="608.35" y="317.45" fill="#535461" width="55.11" height="6.12"/>
<polygon opacity="0.15" fill="#FFFFFF" enable-background="new    " points="639.81,269.07 661.01,298.32 661.01,283.42 
	649.1,269.07 "/>
<polygon opacity="0.15" fill="#FFFFFF" enable-background="new    " points="621.6,269.07 661.01,310.48 661.01,303.17 
	631.6,269.07 "/>
<line fill="none" stroke="#535461" stroke-width="2" stroke-miterlimit="10" x1="661.32" y1="294.48" x2="609.88" y2="294.48"/>
<line fill="none" stroke="#535461" stroke-width="2" stroke-miterlimit="10" x1="661.01" y1="269.07" x2="609.58" y2="269.07"/>
<line fill="none" stroke="#535461" stroke-width="2" stroke-miterlimit="10" x1="635.6" y1="268.77" x2="635.6" y2="320.2"/>
<line fill="none" stroke="#535461" stroke-width="2" stroke-miterlimit="10" x1="610.19" y1="269.07" x2="610.19" y2="320.51"/>
<line fill="none" stroke="#535461" stroke-width="2" stroke-miterlimit="10" x1="661.01" y1="268.46" x2="661.01" y2="319.9"/>
<rect x="532.12" y="164.05" opacity="0.7" fill="#0075D5" enable-background="new    " width="51.44" height="51.44"/>
<rect x="530.59" y="213.97" opacity="0.1" enable-background="new    " width="55.11" height="6.12"/>
<rect x="530.59" y="212.74" fill="#535461" width="55.11" height="6.12"/>
<polygon opacity="0.15" fill="#FFFFFF" enable-background="new    " points="562.05,164.36 583.25,193.61 583.25,178.71 
	571.33,164.36 "/>
<polygon opacity="0.15" fill="#FFFFFF" enable-background="new    " points="543.84,164.36 583.25,205.77 583.25,198.46 
	553.84,164.36 "/>
<line fill="none" stroke="#535461" stroke-width="2" stroke-miterlimit="10" x1="583.55" y1="189.78" x2="532.12" y2="189.78"/>
<line fill="none" stroke="#535461" stroke-width="2" stroke-miterlimit="10" x1="583.25" y1="164.36" x2="531.81" y2="164.36"/>
<line fill="none" stroke="#535461" stroke-width="2" stroke-miterlimit="10" x1="557.83" y1="164.06" x2="557.83" y2="215.49"/>
<line fill="none" stroke="#535461" stroke-width="2" stroke-miterlimit="10" x1="532.42" y1="164.36" x2="532.42" y2="215.8"/>
<line fill="none" stroke="#535461" stroke-width="2" stroke-miterlimit="10" x1="583.25" y1="163.75" x2="583.25" y2="215.19"/>
<rect x="530.59" y="362.15" fill="#535461" width="55.11" height="12.25"/>
<rect x="696.53" y="278.87" opacity="0.7" fill="#0075D5" enable-background="new    " width="139.61" height="63.68"/>
<rect x="694.69" y="340.71" opacity="0.1" enable-background="new    " width="143.29" height="6.12"/>
<rect x="694.69" y="339.49" fill="#535461" width="143.29" height="6.12"/>
<polygon opacity="0.2" fill="#FFFFFF" enable-background="new    " points="715.82,278.87 696.53,294.79 696.53,303.06 
	726.53,278.87 "/>
<rect x="763.88" y="279.87" fill="#535461" width="4.9" height="63.68"/>
<rect x="696.88" y="279.87" fill="#535461" width="4.9" height="63.68"/>
<rect x="830.88" y="279.87" fill="#535461" width="4.9" height="63.68"/>
<rect x="696.52" y="308.26" fill="#535461" width="139.61" height="4.9"/>
<rect x="696.52" y="279.26" fill="#535461" width="139.61" height="4.9"/>
<polygon opacity="0.2" fill="#FFFFFF" enable-background="new    " points="734.8,278.87 696.53,315.3 696.53,324.49 743.06,278.76 
	"/>
<path fill="#4DB6AC" d="M289.94,295.4c0.0924-7.9539-2.3603-15.7289-7-22.19c4.9869-10.3608,0.6305-22.8027-9.7303-27.7897
	c-10.3608-4.9869-22.8027-0.6305-27.7897,9.7303c-2.7467,5.7065-2.7467,12.3528,0,18.0593c-9.2809,13.3376-9.2809,31.0424,0,44.38
	c-4.9869,10.3608-0.6305,22.8027,9.7303,27.7897c10.3609,4.9869,22.8027,0.6306,27.7897-9.7303
	c2.7466-5.7065,2.7466-12.3528,0-18.0593C287.5797,311.1289,290.0324,303.3539,289.94,295.4z"/>
<path opacity="0.1" enable-background="new    " d="M289.94,295.4c0.0924-7.9539-2.3603-15.7289-7-22.19
	c4.9869-10.3608,0.6305-22.8027-9.7303-27.7897c-10.3608-4.9869-22.8027-0.6305-27.7897,9.7303
	c-2.7467,5.7065-2.7467,12.3528,0,18.0593c-9.2809,13.3376-9.2809,31.0424,0,44.38c-4.9869,10.3608-0.6305,22.8027,9.7303,27.7897
	c10.3609,4.9869,22.8027,0.6306,27.7897-9.7303c2.7466-5.7065,2.7466-12.3528,0-18.0593
	C287.5797,311.1289,290.0324,303.3539,289.94,295.4z"/>
<path fill="#4DB6AC" d="M291.16,295.4c0.0924-7.9539-2.3603-15.7289-7-22.19c4.9869-10.3608,0.6306-22.8027-9.7303-27.7897
	c-10.3609-4.9869-22.8027-0.6305-27.7897,9.7303c-2.7467,5.7065-2.7467,12.3528,0,18.0593c-9.2809,13.3376-9.2809,31.0424,0,44.38
	c-4.9869,10.3608-0.6305,22.8027,9.7303,27.7897c10.3609,4.9869,22.8027,0.6306,27.7897-9.7303
	c2.7467-5.7065,2.7467-12.3528,0-18.0593C288.7997,311.1289,291.2524,303.3539,291.16,295.4z"/>
<polygon fill="#5D291B" points="267.89,374.39 263,374.39 265.45,293.56 "/>
<polygon fill="#5D291B" points="266.06,313.77 281.98,307.04 266.06,315.61 "/>
<polygon fill="#5D291B" points="264.61,321.12 259.94,315.61 264.52,324.18 "/>
<path fill="#4DB6AC" d="M909.6199,295.4c0.0924-7.9539-2.3604-15.7289-7-22.19c4.9869-10.3608,0.6305-22.8027-9.7303-27.7896
	s-22.8027-0.6305-27.7897,9.7304c-2.7466,5.7064-2.7466,12.3528,0,18.0593c-9.2809,13.3376-9.2809,31.0424,0,44.38
	c-4.9869,10.3608-0.6305,22.8027,9.7303,27.7897s22.8027,0.6305,27.7897-9.7304c2.7467-5.7064,2.7467-12.3528,0-18.0593
	C907.2596,311.1289,909.7123,303.3539,909.6199,295.4z"/>
<path opacity="0.1" enable-background="new    " d="M909.6199,295.4c0.0924-7.9539-2.3604-15.7289-7-22.19
	c4.9869-10.3608,0.6305-22.8027-9.7303-27.7896s-22.8027-0.6305-27.7897,9.7304c-2.7466,5.7064-2.7466,12.3528,0,18.0593
	c-9.2809,13.3376-9.2809,31.0424,0,44.38c-4.9869,10.3608-0.6305,22.8027,9.7303,27.7897s22.8027,0.6305,27.7897-9.7304
	c2.7467-5.7064,2.7467-12.3528,0-18.0593C907.2596,311.1289,909.7123,303.3539,909.6199,295.4z"/>
<path fill="#4DB6AC" d="M910.84,295.4c0.0924-7.9539-2.3604-15.7289-7-22.19c4.9869-10.3608,0.6305-22.8027-9.7303-27.7896
	s-22.8027-0.6305-27.7897,9.7304c-2.7466,5.7064-2.7466,12.3528,0,18.0593c-9.2809,13.3376-9.2809,31.0424,0,44.38
	c-4.9869,10.3608-0.6305,22.8027,9.7303,27.7897s22.8027,0.6305,27.7897-9.7304c2.7467-5.7064,2.7467-12.3528,0-18.0593
	C908.4797,311.1289,910.9324,303.3539,910.84,295.4z"/>
<polygon fill="#5D291B" points="887.57,374.39 882.68,374.39 885.13,293.56 "/>
<polygon fill="#5D291B" points="885.74,313.77 901.66,307.04 885.74,315.61 "/>
<polygon fill="#5D291B" points="884.29,321.12 879.61,315.61 884.2,324.18 "/>
<path fill="#4DB6AC" d="M459.55,295.4c0.0924-7.9539-2.3603-15.7289-7-22.19c4.9869-10.3608,0.6305-22.8027-9.7303-27.7896
	c-10.3609-4.9869-22.8027-0.6305-27.7897,9.7304c-2.7466,5.7064-2.7466,12.3528,0,18.0593c-9.2809,13.3376-9.2809,31.0424,0,44.38
	c-4.9869,10.3608-0.6305,22.8027,9.7303,27.7897c10.3609,4.9869,22.8027,0.6305,27.7897-9.7304
	c2.7466-5.7064,2.7466-12.3528,0-18.0593C457.1897,311.1289,459.6424,303.3539,459.55,295.4z"/>
<path opacity="0.1" enable-background="new    " d="M459.55,295.4c0.0924-7.9539-2.3603-15.7289-7-22.19
	c4.9869-10.3608,0.6305-22.8027-9.7303-27.7896c-10.3609-4.9869-22.8027-0.6305-27.7897,9.7304
	c-2.7466,5.7064-2.7466,12.3528,0,18.0593c-9.2809,13.3376-9.2809,31.0424,0,44.38c-4.9869,10.3608-0.6305,22.8027,9.7303,27.7897
	c10.3609,4.9869,22.8027,0.6305,27.7897-9.7304c2.7466-5.7064,2.7466-12.3528,0-18.0593
	C457.1897,311.1289,459.6424,303.3539,459.55,295.4z"/>
<path fill="#4DB6AC" d="M460.78,295.4c0.0924-7.9539-2.3603-15.7289-7-22.19c4.9869-10.3608,0.6305-22.8027-9.7303-27.7896
	c-10.3609-4.9869-22.8027-0.6305-27.7897,9.7304c-2.7466,5.7064-2.7466,12.3528,0,18.0593c-9.2809,13.3376-9.2809,31.0424,0,44.38
	c-4.9869,10.3608-0.6305,22.8027,9.7303,27.7897c10.3609,4.9869,22.8027,0.6305,27.7897-9.7304
	c2.7466-5.7064,2.7466-12.3528,0-18.0593C458.4197,311.1289,460.8724,303.3539,460.78,295.4z"/>
<polygon fill="#5D291B" points="437.51,374.39 432.61,374.39 435.06,293.56 "/>
<polygon fill="#5D291B" points="435.67,313.77 451.59,307.04 435.67,315.61 "/>
<polygon fill="#5D291B" points="434.23,321.12 429.55,315.61 434.13,324.18 "/>
<g opacity="0.7">
	
		<linearGradient id="SVGID_1_" gradientUnits="userSpaceOnUse" x1="473.4132" y1="-247.6299" x2="473.4132" y2="-181.65" gradientTransform="matrix(1 0 0 -1 -144.58 127.79)">
		<stop  offset="0" style="stop-color:#808080;stop-opacity:0.25"/>
		<stop  offset="0.54" style="stop-color:#808080;stop-opacity:0.12"/>
		<stop  offset="1" style="stop-color:#808080;stop-opacity:0.1"/>
	</linearGradient>
	<path fill="url(#SVGID_1_)" d="M337.47,348.07l-0.5-0.09l1-3.67c1.57-11.75-4.35-12.93-6.57-13
		c-0.2553-0.0945-0.5157-0.1746-0.78-0.24v-1.39c2.8515-0.7068,5.0095-3.0417,5.49-5.94l0,0c0.35,0,0.64-0.54,0.64-1.2
		c0.016-0.3547-0.0822-0.7052-0.28-1c0-0.2534,0-0.51,0-0.77c0.0038-2.0916-0.849-4.0936-2.36-5.54
		c-0.1015-0.5122-0.2838-1.005-0.54-1.46c-0.54-1-1.45-2-1.08-3l-2.39,0.25v-1.58c-0.75,0.13-1.06,1-1.5,1.62
		c-1.07,1.48-3.2,1.69-4.62,2.84c-0.48,0.39-1.56,1.59-1.36,2.37c-0.9511,1.3074-1.4624,2.8832-1.46,4.5c0,0.26,0,0.5167,0,0.77
		c-0.1979,0.2948-0.296,0.6453-0.28,1c0,0.66,0.29,1.2,0.64,1.2l0,0c0.4805,2.8983,2.6385,5.2332,5.49,5.94v1.39
		c-0.2643,0.0654-0.5247,0.1455-0.78,0.24c-2.22,0-8.14,1.22-6.57,13l1,3.67h-0.24c-1.4789,0.278-2.454,1.7003-2.18,3.18l3.92,21
		c0.0826,0.4509,0.515,0.7495,0.9659,0.6669c0.0114-0.0021,0.0228-0.0044,0.0341-0.007l0.69-0.13v0.41
		c-0.7834,0.3876-1.2794,1.1859-1.28,2.06v0.26h4.63v-0.26c0.0112-0.819-0.4159-1.5816-1.12-2v-0.91l0.63-0.12
		c0.4509-0.0825,0.7495-0.515,0.667-0.9659c-0.0021-0.0114-0.0045-0.0228-0.007-0.0341l-3.69-19.75h10.22l-3.69,19.75
		c-0.1014,0.447,0.1788,0.8916,0.6259,0.993c0.0114,0.0026,0.0227,0.0049,0.0341,0.007l0.63,0.12v0.91
		c-0.7041,0.4184-1.1312,1.181-1.12,2v0.26h4.63v-0.26c-0.0005-0.8741-0.4965-1.6724-1.28-2.06V372.79l0.69,0.13
		c0.447,0.1014,0.8916-0.1788,0.993-0.6259c0.0026-0.0114,0.0049-0.0227,0.007-0.0341l4-21.28
		c0.2769-1.3245-0.5724-2.6226-1.8969-2.8995C337.5055,348.0769,337.4878,348.0733,337.47,348.07z"/>
</g>
<rect x="324.09" y="370.06" fill="#FDB797" width="2.15" height="2.92"/>
<rect x="331.47" y="370.06" fill="#FDB797" width="2.15" height="2.92"/>
<rect x="321.79" y="346.08" fill="#4D8AF0" width="14.15" height="5.07"/>
<g opacity="0.05">
	<rect x="321.79" y="346.08" width="14.15" height="5.07"/>
</g>
<path opacity="0.1" enable-background="new    " d="M321.78,347c2.3268,0.5663,4.6887,0.9772,7.07,1.23
	c2.3813-0.2527,4.7432-0.6637,7.07-1.23v-0.77h-14.14V347z"/>
<path fill="#F55F44" d="M335.93,346.85c-2.3268,0.5663-4.6887,0.9772-7.07,1.23c-2.3813-0.2527-4.7432-0.6637-7.07-1.23v-8.46
	c0-3.9047,3.1653-7.07,7.07-7.07l0,0l0,0c3.9047,0,7.07,3.1653,7.07,7.07l0,0V346.85z"/>
<path fill="#FDB797" d="M327.17,327.78h3.38l0,0v3.88c0,0.9168-0.7432,1.66-1.66,1.66l0,0h-0.06c-0.9168,0-1.66-0.7432-1.66-1.66
	l0,0V327.78L327.17,327.78z"/>
<path fill="#4D8AF0" d="M326.49,371.15l-2.71,0.51c-0.6295,0.1155-1.2336-0.3007-1.35-0.93l-3.49-18.68
	c-0.3886-2.0736,0.9773-4.0697,3.0509-4.4583c0.0031-0.0006,0.0061-0.0012,0.0091-0.0017h0.09
	c0.6295-0.1155,1.2336,0.3007,1.35,0.93l4,21.3C327.5425,370.449,327.1183,371.0429,326.49,371.15z"/>
<path fill="#4D8AF0" d="M331.31,371.16l2.52,0.47c0.6785,0.1276,1.3319-0.319,1.4595-0.9974
	c0.0002-0.0009,0.0004-0.0017,0.0005-0.0026l3.49-18.68c0.3757-2.0255-0.9618-3.972-2.9872-4.3477
	c-0.0043-0.0008-0.0085-0.0015-0.0128-0.0023h-0.09c-0.6785-0.1276-1.3319,0.319-1.4595,0.9974
	c-0.0001,0.0009-0.0003,0.0017-0.0005,0.0026l-3.94,21.11c-0.1204,0.6798,0.3332,1.3284,1.0129,1.4488
	C331.3053,371.1592,331.3077,371.1596,331.31,371.16z"/>
<path opacity="0.1" enable-background="new    " d="M327.17,330.35c1.1102,0.2729,2.2699,0.2729,3.38,0v-2.41h-3.38V330.35z"/>
<circle fill="#333333" cx="328.86" cy="321.63" r="7.38"/>
<circle fill="#FDB797" cx="328.86" cy="323.32" r="7.07"/>
<path fill="#333333" d="M324.19,315.03c1.36-1.11,3.42-1.31,4.44-2.74c0.43-0.59,0.73-1.43,1.45-1.55v1.52l2.3-0.24
	c-0.36,1,0.52,2,1,2.89c0.3839,0.6818,0.5934,1.4478,0.61,2.23c-0.8,0.48-1.79,0-2.68-0.32c-0.8773-0.233-1.7825-0.3441-2.69-0.33
	c-0.4649-0.0314-0.9318-0.0045-1.39,0.08c-0.3949,0.1061-0.7797,0.2466-1.15,0.42c-0.61,0.26-2.55,1.22-3.12,0.6
	S323.66,315.45,324.19,315.03z"/>
<path opacity="0.1" enable-background="new    " d="M324.57,319.79c0.3865,0.2102,0.8118,0.3395,1.25,0.38
	c1.812,0.2496,3.6577,0.0434,5.37-0.6c0.3244,0.7029,0.9431,1.2264,1.69,1.43c0.7402,0.1947,1.5051,0.2789,2.27,0.25
	c0.1687,0.0202,0.3395-0.0112,0.49-0.09c0.34-0.23,0.18-0.76,0-1.12l-1-1.79c-0.2482-0.5428-0.5862-1.0398-1-1.47
	c-0.5976-0.4689-1.308-0.7725-2.06-0.88c-1.7504-0.3469-3.5573-0.2853-5.28,0.18C324.42,316.57,322.05,318.25,324.57,319.79z"/>
<path fill="#333333" d="M324.57,319.62c0.3865,0.2102,0.8118,0.3395,1.25,0.38c1.812,0.2496,3.6577,0.0434,5.37-0.6
	c0.3244,0.7029,0.9431,1.2264,1.69,1.43c0.7402,0.1947,1.5051,0.2789,2.27,0.25c0.1687,0.0202,0.3395-0.0112,0.49-0.09
	c0.34-0.23,0.18-0.76,0-1.12l-1-1.79c-0.2482-0.5428-0.5862-1.0398-1-1.47c-0.5976-0.4689-1.308-0.7725-2.06-0.88
	c-1.7504-0.3469-3.5573-0.2853-5.28,0.18C324.42,316.41,322.05,318.1,324.57,319.62z"/>
<ellipse fill="#FDB797" cx="335.85" cy="323.32" rx="0.62" ry="1.15"/>
<ellipse fill="#FDB797" cx="321.86" cy="323.32" rx="0.62" ry="1.15"/>
<path fill="#F55F44" d="M327.19,331.79c0,0-8.95-1.39-7.1,12.44l1.08,4l3.08-0.12c0,0-2-4.61-0.77-7.69
	C324.71,337.34,327.19,331.79,327.19,331.79z"/>
<path fill="#F55F44" d="M330.52,331.79c0,0,8.95-1.39,7.1,12.44l-1.08,4l-3.08-0.12c0,0,2-4.61,0.77-7.69
	C333,337.34,330.52,331.79,330.52,331.79z"/>
<circle fill="#FDB797" cx="322.86" cy="348.69" r="1.69"/>
<circle fill="#FDB797" cx="335.16" cy="348.69" r="1.69"/>
<path fill="#333333" d="M325.05,371.76h0.08c1.2095,0,2.19,0.9805,2.19,2.19l0,0v0.27l0,0h-4.46l0,0v-0.27
	C322.86,372.7405,323.8405,371.76,325.05,371.76L325.05,371.76z"/>
<path fill="#333333" d="M332.58,371.76h0.08c1.2095,0,2.19,0.9805,2.19,2.19l0,0v0.27l0,0h-4.45l0,0v-0.27
	C330.4,372.7444,331.3744,371.7655,332.58,371.76z"/>
<path opacity="0.1" enable-background="new    " d="M323.32,339.16c0,0-0.62,3.23,0.46,4.61"/>
<path opacity="0.1" enable-background="new    " d="M334.42,339.16c0,0,0.62,3.23-0.46,4.61"/>
<circle fill="#F55F44" cx="447.31" cy="300.3" r="3.06"/>
<linearGradient id="SVGID_2_" gradientUnits="userSpaceOnUse" x1="595.5969" y1="-184.19" x2="595.5969" y2="-173.2276" gradientTransform="matrix(1 0 0 -1 -144.58 127.79)">
	<stop  offset="0" style="stop-color:#808080;stop-opacity:0.25"/>
	<stop  offset="0.54" style="stop-color:#808080;stop-opacity:0.12"/>
	<stop  offset="1" style="stop-color:#808080;stop-opacity:0.1"/>
</linearGradient>
<path fill="url(#SVGID_2_)" d="M451,311.11v0.87l3.69-2.33l-0.39-0.49l-0.18,0.11l-2.86-4.19v-2.43l-1.09,0.1v-0.39
	c-2.87-3.3-3.17,0.39-2.57,1.46c0.4355,0.7192,1.006,1.3474,1.68,1.85c0.61,0.51,1.66,4.36,1.92,5.32L451,311.11z"/>
<linearGradient id="SVGID_3_" gradientUnits="userSpaceOnUse" x1="609.6469" y1="-248.83" x2="609.6469" y2="-166.6068" gradientTransform="matrix(1 0 0 -1 -144.58 127.79)">
	<stop  offset="0" style="stop-color:#808080;stop-opacity:0.25"/>
	<stop  offset="0.54" style="stop-color:#808080;stop-opacity:0.12"/>
	<stop  offset="1" style="stop-color:#808080;stop-opacity:0.1"/>
</linearGradient>
<path fill="url(#SVGID_3_)" d="M474.98,309.17l-0.5-0.34l0,0l-0.46-1.36h-0.17l-0.57-1.14c0.4922-0.2534,0.9358-0.592,1.31-1
	c1.2305-1.3258,1.7835-3.1435,1.5-4.93c0-0.53,0.83-1.89-1.77-2.6c-0.158-1.5109-1.2523-2.7575-2.73-3.11
	c-1.003-0.2496-2.0389-0.3406-3.07-0.27c-2.0023,0.0591-3.6267,1.64-3.74,3.64c0,0-0.6,0.19-0.64,2.16h0.08
	c-0.7546,3.0392,1.0975,6.1146,4.1367,6.8692c0.0011,0.0002,0.0022,0.0005,0.0033,0.0008v0.21l0.11,0.05l0.37,1l-1.18,0.71
	l-2.37,0.08c-1.0951,0.0367-2.1751,0.267-3.19,0.68c-2.0027,0.7094-4.0506,1.284-6.13,1.72l-1.26-1.8l-3.69,2.55l2.43,3.71
	c0.3872,0.2933,0.8107,0.5353,1.26,0.72l0,0h0.11c0.6017,0.233,1.2247,0.4071,1.86,0.52c2.1179,0.4062,4.2905,0.4401,6.42,0.1l0,0
	l0.83,16.73h0.05l-0.39,2.87c-3.89,4.86-5,19-5,19l5.8301,16.53c-0.11,0.47-0.55,1.49-2.3,2.21c-2.36,1,1.67,1.65,1.67,1.65
	l3.66-1.13c0.3,0.61,2,1.42,2,1.42l7.29-0.19v-3.64h-0.1c0,0,0.68-6.51,0.19-7.87s0-8,0-8l0.39-14.09
	c1.299-2.2318,1.4075-4.9621,0.29-7.29c-0.3212-0.6779-0.5273-1.4045-0.61-2.15c0.3677-1.194,0.4091-2.4646,0.12-3.68
	c-0.87-5.51,1.94-11,1.94-11l0,0C479.6309,315.0233,478.072,311.2868,474.98,309.17z M470.63,373.67l-0.82-2.94l-0.19,0.05l-3.56-15
	l3.3-6.9v6.61l1.85,12.93v4.3701C471.1021,373.1314,470.9012,373.4362,470.63,373.67z"/>
<path fill="#FDA57D" d="M451.73,303.94v2.33l2.78,4.07l-2.78,1.81c0,0-1.24-4.76-1.9-5.32c-0.6489-0.4802-1.199-1.0812-1.62-1.77
	c-0.57-1-0.29-4.58,2.47-1.4v0.37L451.73,303.94z"/>
<path fill="#FDA57D" d="M473.88,309.51l-1.1-2.2c-0.0667-0.1281-0.1959-0.2117-0.34-0.22l-4.18-0.21
	c-0.2263-0.0082-0.4163,0.1687-0.4245,0.395c-0.0019,0.0528,0.0064,0.1054,0.0245,0.155l1.08,2.79
	c0.0662,0.1707,0.2376,0.2769,0.42,0.26l4.2-0.37c0.2252-0.0233,0.3889-0.2248,0.3657-0.45
	C473.9202,309.6075,473.9047,309.5565,473.88,309.51z"/>
<polygon fill="#EDEEF9" points="473.57,308.56 474.28,310.64 466.98,310.38 469.79,308.7 "/>
<polygon fill="#EDEEF9" points="455.03,310.66 454.66,310.2 451.48,312.06 451.48,312.9 "/>
<path fill="#7A7478" d="M476.48,331.33c-0.2927,1.4393-0.1211,2.9344,0.49,4.27c1.0709,2.2359,0.966,4.8568-0.28,7l-0.37,13.54
	c0,0-0.47,6.35,0,7.66s-0.19,7.56-0.19,7.56h-5.23v-4.2l-1.77-12.3699v-6.35l-3.18,6.63l3.64,15.32l-4.76,2l-6-17.18
	c0,0,1-13.54,4.76-18.21l0.7-5.09L476.48,331.33z"/>
<path fill="#333333" d="M476.23,374.79v-3.46h-5.32c0,0-0.37,1.4-2.8,1.68s1.12,2,1.12,2L476.23,374.79z"/>
<path fill="#333333" d="M470.48,372.67l-0.93-3.33l-5.13,1.45c0,0,0,1.45-2.25,2.37s1.61,1.59,1.61,1.59L470.48,372.67z"/>
<path opacity="0.1" enable-background="new    " d="M464.32,332.1l12.16-0.49c-0.1371,0.7187-0.1574,1.4548-0.06,2.18
	c-0.2228,0.7471-0.9932,1.1874-1.75,1l-10.64-0.33L464.32,332.1z"/>
<path fill="#252A62" d="M474.03,309.87l0.48,0.33c2.9987,2.0286,4.5135,5.639,3.86,9.2l0,0c0,0-2.71,5.3-1.87,10.6
	s-1.87,4.48-1.87,4.48l-10.69-0.33l-0.79-16.08c0,0-6.44,0.92-9.34-1.32l-2.33-3.57l3.55-2.45l1.21,1.73
	c1.9979-0.418,3.9656-0.9693,5.89-1.65c0.9731-0.3986,2.0091-0.6221,3.06-0.66L474.03,309.87z"/>
<path opacity="0.1" enable-background="new    " d="M473.94,335.79c0,0,0.65,3.27-3.08,8.69"/>
<path opacity="0.1" enable-background="new    " d="M463.11,318.09c0,0-4.48-1.49-6.44-1.49s-1.63,0.85-1.63,0.85
	C457.627,318.3688,460.4105,318.5896,463.11,318.09z"/>
<path opacity="0.1" enable-background="new    " d="M468.19,307.06l1.78,0.21c0.06,0,0.11,0.08,0.14,0.19
	c-0.39,0.71-0.88,1.13-1.42,1.13c-0.1899-0.0026-0.376-0.0543-0.54-0.15l-0.14-0.83C467.97,307.33,468.06,307.04,468.19,307.06z"/>
<circle fill="#FDA57D" cx="469.44" cy="302.95" r="5.45"/>
<path opacity="0.1" enable-background="new    " d="M464.8,299.87L464.8,299.87l0.27,0.25c0.3831,0.3504,0.4095,0.945,0.059,1.3281
	c-0.0916,0.1002-0.2039,0.1793-0.329,0.2319l0,0c0,0,2.44,2.44,2.78,2.89s-0.06,1.65-0.06,1.65s-1.08,2,4.6,1.53
	c0,0,3.74-0.79,3.35-5.84c0-0.51,0.79-1.82-1.7-2.5l0,0c-0.1481-1.4582-1.2037-2.6624-2.63-3c-0.9799-0.2453-1.9926-0.3331-3-0.26
	C466.2328,296.3412,464.7853,297.9535,464.8,299.87z"/>
<path fill="#72351C" d="M464.68,299.57L464.68,299.57c0,0-0.58,0.18-0.61,2.08l0.82-0.06c0,0,1.9,5.09,1.7,4.43
	c-0.74-2.44,0.74-2,1.08-1.53s-0.06,1.65-0.06,1.65s-1.08,2,4.6,1.53c0,0,3.74-0.79,3.35-5.84c0-0.51,0.79-1.82-1.7-2.5l0,0
	c-0.1481-1.4582-1.2037-2.6624-2.63-3c-0.9799-0.2453-1.9926-0.3331-3-0.26C466.3223,296.1494,464.7864,297.6637,464.68,299.57z"/>
<path fill="#4DB6AC" d="M68.84,359.32c0-0.28,0-0.56,0-0.85c0.0155-6.0751-4.8968-11.0125-10.9719-11.0281
	c-1.9837-0.0051-3.9318,0.5264-5.6381,1.5381c-2.8557-5.3621-9.5175-7.394-14.8796-4.5384
	c-1.4636,0.7794-2.732,1.8796-3.7104,3.2184c-5.9512-1.2208-11.7653,2.614-12.986,8.5652c-0.6789,3.3098,0.2008,6.7479,2.386,9.3248
	c-2.2217,5.6543,0.5609,12.0391,6.2152,14.2608c2.7993,1.0999,5.9268,1.0057,8.6548-0.2608c3.985,1.8307,8.6766,1.1194,11.94-1.81
	c2.9871,2.6935,7.2114,3.5307,11,2.18c5.6747,2.1871,12.0479-0.6403,14.235-6.315c2.1871-5.6747-0.6403-12.0479-6.315-14.235
	L68.84,359.32z"/>
<path opacity="0.1" enable-background="new    " d="M68.84,359.32c0-0.28,0-0.56,0-0.85
	c0.0155-6.0751-4.8968-11.0125-10.9719-11.0281c-1.9837-0.0051-3.9318,0.5264-5.6381,1.5381
	c-2.8557-5.3621-9.5175-7.394-14.8796-4.5384c-1.4636,0.7794-2.732,1.8796-3.7104,3.2184
	c-5.9512-1.2208-11.7653,2.614-12.986,8.5652c-0.6789,3.3098,0.2008,6.7479,2.386,9.3248
	c-2.2217,5.6543,0.5609,12.0391,6.2152,14.2608c2.7993,1.0999,5.9268,1.0057,8.6548-0.2608c3.985,1.8307,8.6766,1.1194,11.94-1.81
	c2.9871,2.6935,7.2114,3.5307,11,2.18c5.6747,2.1871,12.0479-0.6403,14.235-6.315c2.1871-5.6747-0.6403-12.0479-6.315-14.235
	L68.84,359.32z"/>
<path fill="#4DB6AC" d="M70.07,359.32c0-0.28,0-0.56,0-0.85c0.0155-6.0751-4.8968-11.0125-10.9719-11.0281
	c-1.9837-0.0051-3.9318,0.5264-5.6381,1.5381c-2.8557-5.3621-9.5175-7.394-14.8796-4.5384
	c-1.4636,0.7794-2.732,1.8796-3.7104,3.2184c-5.9512-1.2208-11.7653,2.614-12.986,8.5652c-0.6789,3.3098,0.2008,6.7479,2.386,9.3248
	c-2.2217,5.6543,0.5609,12.0391,6.2152,14.2608c2.7993,1.0999,5.9268,1.0057,8.6548-0.2608c3.985,1.8307,8.6766,1.1194,11.94-1.81
	c2.9871,2.6935,7.2114,3.5307,11,2.18c5.6747,2.1871,12.0479-0.6403,14.235-6.315c2.1871-5.6747-0.6403-12.0479-6.315-14.235
	L70.07,359.32z"/>
<path fill="#4DB6AC" d="M842.83,355.04c0-0.28,0-0.56,0-0.85c0.0155-6.0751-4.8968-11.0125-10.9719-11.0281
	c-1.9837-0.0051-3.9318,0.5264-5.6381,1.5381c-2.8557-5.3621-9.5175-7.394-14.8796-4.5385
	c-1.4636,0.7794-2.7321,1.8797-3.7104,3.2184c-5.9512-1.2208-11.7653,2.6141-12.986,8.5652
	c-0.6789,3.3098,0.2009,6.7479,2.386,9.3248c1.1728,9.4545,9.7879,16.168,19.2423,14.9952c2.7167-0.337,5.3141-1.3157,7.5777-2.8552
	c3.5792,6.6788,11.8948,9.1915,18.5736,5.6123s9.1915-11.8949,5.6123-18.5736c-1.2096-2.2571-3.0268-4.1307-5.2459-5.4087
	L842.83,355.04z"/>
<path opacity="0.1" enable-background="new    " d="M842.83,355.04c0-0.28,0-0.56,0-0.85
	c0.0155-6.0751-4.8968-11.0125-10.9719-11.0281c-1.9837-0.0051-3.9318,0.5264-5.6381,1.5381
	c-2.8557-5.3621-9.5175-7.394-14.8796-4.5385c-1.4636,0.7794-2.7321,1.8797-3.7104,3.2184
	c-5.9512-1.2208-11.7653,2.6141-12.986,8.5652c-0.6789,3.3098,0.2009,6.7479,2.386,9.3248
	c1.1728,9.4545,9.7879,16.168,19.2423,14.9952c2.7167-0.337,5.3141-1.3157,7.5777-2.8552
	c3.5792,6.6788,11.8948,9.1915,18.5736,5.6123s9.1915-11.8949,5.6123-18.5736c-1.2096-2.2571-3.0268-4.1307-5.2459-5.4087
	L842.83,355.04z"/>
<path fill="#4DB6AC" d="M844.05,355.04c0-0.28,0-0.56,0-0.85c0.0155-6.0751-4.8968-11.0125-10.9719-11.0281
	c-1.9837-0.0051-3.9318,0.5264-5.6381,1.5381c-2.8557-5.3621-9.5175-7.394-14.8796-4.5385
	c-1.4636,0.7794-2.7321,1.8797-3.7104,3.2184c-5.9512-1.2208-11.7653,2.6141-12.986,8.5652
	c-0.6789,3.3098,0.2009,6.7479,2.386,9.3248c1.1728,9.4545,9.7879,16.168,19.2423,14.9952c2.7167-0.337,5.3141-1.3157,7.5777-2.8552
	c3.5792,6.6788,11.8948,9.1915,18.5736,5.6123s9.1915-11.8949,5.6123-18.5736c-1.2096-2.2571-3.0268-4.1307-5.2459-5.4087
	L844.05,355.04z"/>
<rect x="9.49" y="374.39" fill="#0D2E45" width="897.68" height="9.18"/>
<circle fill="#FFBF00" cx="807.69" cy="28.24" r="28.24"/>
<g opacity="0.3">
	<path fill="#E0E0E0" d="M609.05,27.99h76.0801c5.092,0,9.22,4.1279,9.22,9.22l0,0c0,5.0921-4.1279,9.22-9.22,9.22H609.05
		c-5.092,0-9.22-4.1279-9.22-9.22l0,0C599.83,32.1179,603.9579,27.99,609.05,27.99z"/>
	<path fill="#E0E0E0" d="M586,46.43h76.0801c5.092,0,9.22,4.1279,9.22,9.22l0,0c0,5.0921-4.1279,9.22-9.22,9.22H586
		c-5.092,0-9.22-4.1279-9.22-9.22l0,0C576.78,50.5579,580.908,46.43,586,46.43z"/>
	<path fill="#E0E0E0" d="M609.05,64.87h76.0801c5.092,0,9.22,4.1279,9.22,9.22l0,0c0,5.0921-4.1279,9.22-9.22,9.22H609.05
		c-5.092,0-9.22-4.1279-9.22-9.22l0,0C599.83,68.9979,603.9579,64.87,609.05,64.87z"/>
</g>
<g opacity="0.3">
	<path fill="#E0E0E0" d="M173.07,18.8h76.08c5.0921,0,9.22,4.1279,9.22,9.22v0c0,5.0921-4.1279,9.22-9.22,9.22h-76.08
		c-5.0921,0-9.22-4.1279-9.22-9.22v0C163.85,22.9279,167.9779,18.8,173.07,18.8z"/>
	<path fill="#E0E0E0" d="M150.02,37.24h76.08c5.0921,0,9.22,4.1279,9.22,9.22v0c0,5.0921-4.1279,9.22-9.22,9.22h-76.08
		c-5.0921,0-9.22-4.1279-9.22-9.22v0C140.8,41.3679,144.9279,37.24,150.02,37.24z"/>
	<path fill="#E0E0E0" d="M173.07,55.69h76.08c5.0921,0,9.22,4.1279,9.22,9.22l0,0c0,5.0921-4.1279,9.22-9.22,9.22h-76.08
		c-5.0921,0-9.22-4.1279-9.22-9.22l0,0C163.85,59.8179,167.9779,55.69,173.07,55.69z"/>
</g>
<g opacity="0.3">
	<path fill="#030B44" d="M85,85.37h20.17C105.17,85.37,97.57,98.79,85,85.37z"/>
	<path fill="#030B44" d="M86.22,91.1l13.2-15.24C99.42,75.86,104.62,90.42,86.22,91.1z"/>
</g>
<g opacity="0.3">
	<path fill="#030B44" d="M306.27,12.51h20.15C326.42,12.51,318.84,25.95,306.27,12.51z"/>
	<path fill="#030B44" d="M307.48,18.23L320.7,3C320.7,3,325.88,17.55,307.48,18.23z"/>
</g>
<g opacity="0.3">
	<path fill="#030B44" d="M719.22,78.03h21.64C740.86,78.03,732.7,92.45,719.22,78.03z"/>
	<path fill="#030B44" d="M720.52,84.16l14.19-16.37C734.71,67.79,740.26,83.44,720.52,84.16z"/>
</g>
<g opacity="0.5">
	
		<linearGradient id="SVGID_4_" gradientUnits="userSpaceOnUse" x1="770.5984" y1="-249.6428" x2="770.5984" y2="-167.55" gradientTransform="matrix(1 0 0 -1 -144.58 127.79)">
		<stop  offset="0" style="stop-color:#808080;stop-opacity:0.25"/>
		<stop  offset="0.54" style="stop-color:#808080;stop-opacity:0.12"/>
		<stop  offset="1" style="stop-color:#808080;stop-opacity:0.1"/>
	</linearGradient>
	<path fill="url(#SVGID_4_)" d="M638.68,374.55c-1.23-0.73-1.88-3.16-2.07-4l-1.47-18.93c-1.147-5.256-2.9197-10.3557-5.28-15.19
		c-0.05-5.31-0.25-22.12-0.72-23.93l-2.72-3.39c0.1301-0.2593,0.2771-0.5099,0.44-0.75h0.15l0.19-0.23
		c2.3908-0.8427,3.6459-3.4639,2.8032-5.8547c-0.1091-0.3094-0.2509-0.6061-0.4232-0.8853c0.68-0.5-0.19-0.71-0.19-0.71l0,0
		c-0.5339-2.3564-2.8032-3.8956-5.19-3.52c-0.3035-1.0691-1.2787-1.8076-2.39-1.81h-0.14c1.0363,0.0565,1.9289,0.7498,2.24,1.74
		c-0.8633-0.88-1.9653-1.4883-3.17-1.75h-0.14c0.5021,0.0294,0.9834,0.2108,1.38,0.52h-0.22
		c-1.3752-0.0022-2.4918,1.1108-2.494,2.486c-0.0014,0.8865,0.4686,1.7069,1.234,2.1541c-0.2728,1.0216-0.1844,2.106,0.25,3.07
		c-0.2465,1.5799,0.5641,3.1363,2,3.84l-0.3,0.68c-0.36,0-3.29,0.37-5.17,7c-0.81,1.67-1.42,4.36-1.38,8.72
		c-0.08,1.12-0.14,2.31-0.17,3.59l-1.36,5.6l0,0v0.14l0,0c-0.3726,4.4894-0.1236,9.0087,0.74,13.43c0.51,2.49,0.91,5,0.67,5.86
		c-0.54,2-2.46,9.17-2.19,11.38l-0.64,3.87l0,0l-2.4,4.56c0,0,1.48,1.35,2.06,1.39s1.26,1,1.26,1s3.45,2.66,4.62,1.84
		s-0.44-1.8-1.54-3.15c-0.9-1.11-0.67-3.61-0.56-4.48l5.15-18.28c0.3847-2.5488,0.5819-5.1224,0.59-7.7
		c0.3956,0.3168,0.8466,0.5576,1.33,0.71c0.1627,0.0514,0.3373,0.0514,0.5,0l0.33,1.19c0,0,5.94,8.49,6.11,10.53
		s0.85,9.45,1.87,11.44l0.74,3.85l0,0l-0.68,5.11c0.7634,0.3442,1.5839,0.5443,2.42,0.59c0.56-0.17,1.53,0.53,1.53,0.53
		s4.15,1.31,5,0.13S640.18,375.43,638.68,374.55z"/>
</g>
<path fill="#3AD29F" d="M628.27,334.51l1.47,3.44c0,0-0.16-22.56-0.71-24.64l-3.55-4.32l-1.2,3.17l2.73,3.39
	c1.0189,3.2122,1.4987,6.571,1.42,9.94C628.16,330.42,628.27,334.51,628.27,334.51z"/>
<path fill="#381E1D" d="M628.27,334.51l1.47,3.44c0,0-0.16-22.56-0.71-24.64l-3.55-4.32l-1.2,3.17l2.73,3.39
	c1.0189,3.2122,1.4987,6.571,1.42,9.94C628.16,330.42,628.27,334.51,628.27,334.51z"/>
<path fill="#333333" d="M628.1,334.51l1.47,3.44c0,0-0.16-22.56-0.71-24.64l-3.55-4.32l-1.2,3.17l2.73,3.39
	c1.0189,3.2122,1.4987,6.571,1.42,9.94C627.99,330.42,628.1,334.51,628.1,334.51z"/>
<path fill="#4D8AF0" d="M614.69,333.01c-0.3851,4.4144-0.1495,8.861,0.7,13.21c0.49,2.4,0.88,4.81,0.64,5.66
	c-0.52,1.9-2.38,8.85-2.11,11l-0.61,3.73l3.33,1.22l5-17.72c0.8068-6.0031,0.8068-12.087,0-18.09l-7,1L614.69,333.01z"/>
<path fill="#381E1D" d="M613.49,366.34l-2.46,4.67c0,0,1.43,1.31,2,1.34s1.21,1,1.21,1s3.32,2.57,4.46,1.77s-0.42-1.74-1.49-3
	s-0.5-4.62-0.5-4.62L613.49,366.34z"/>
<path fill="#4D8AF0" d="M624.28,344.51c0,0,5.74,8.19,5.9,10.16s0.82,9.12,1.8,11l0.71,3.71h3.55l-1.42-18.35
	c-1.3086-5.9193-3.4039-11.6368-6.23-17l-6.28,3.44L624.28,344.51z"/>
<path fill="#FFFFFF" d="M628.68,335.41c0,0.44-5,0-5,0v-21.3l2.29-3.39c0.8016,1.0576,1.3923,2.2593,1.74,3.54
	c0.5403,1.4279,0.9813,2.8914,1.32,4.38c0.17,0.93-0.44,2.22-0.33,3.39C629.28,326.4716,629.2733,330.9702,628.68,335.41z"/>
<path fill="#FDA57D" d="M625.67,311.93c0.2906-1.2257,0.8817-2.3597,1.72-3.3l-4.26-1.09l-1,2.35L625.67,311.93z"/>
<path opacity="0.1" enable-background="new    " d="M622.5,309.19c0,0-6-0.14-6.53,18.65l-1.31,5.41c0,0,10.6,17.37,12.73,3.28
	c0,0,1.15-15.35-1.09-20.54l1.09-2.62L622.5,309.19z"/>
<path fill="#333333" d="M622.5,309.03c0,0-6-0.14-6.53,18.65l-1.31,5.41c0,0,10.6,17.37,12.73,3.28c0,0,1.15-15.35-1.09-20.54
	l1.09-2.62L622.5,309.03z"/>
<path opacity="0.1" enable-background="new    " d="M620.07,336.37c0,0-0.39,5.77,3.41,7c0.4252,0.1389,0.8826-0.0932,1.0215-0.5184
	c0.0214-0.0652,0.0343-0.133,0.0385-0.2015c0.06-1-0.25-3-2.06-7.08L620.07,336.37z"/>
<path fill="#FDA57D" d="M620.29,336.26c0,0-0.39,5.77,3.41,7c0.4252,0.1389,0.8826-0.0932,1.0215-0.5184
	c0.0214-0.0652,0.0343-0.133,0.0385-0.2015c0.06-1-0.25-3-2.06-7.08L620.29,336.26z"/>
<circle fill="#FA9221" cx="626.79" cy="319.22" r="0.22"/>
<circle fill="#FA9221" cx="626.79" cy="327.41" r="0.22"/>
<path fill="#381E1D" d="M632.78,369.11l-0.7,5.23c0.735,0.3318,1.5249,0.525,2.33,0.57c0.54-0.17,1.48,0.51,1.48,0.51
	s4,1.27,4.79,0.13s-1-1.49-2.45-2.34s-2.06-4.17-2.06-4.17L632.78,369.11z"/>
<path opacity="0.1" fill="#DAA4A2" enable-background="new    " d="M621,313.26c0,0-5.46-1.09-4.81,12.78c0,0,1.31,10.16,3.61,10.82
	l3.44-0.87l-1.37-9.5l1.37-4.92C623.24,321.57,624.33,314.14,621,313.26z"/>
<path opacity="0.1" enable-background="new    " d="M621.49,313.26c0,0-5.46-1.09-4.81,12.78c0,0,1.31,10.16,3.61,10.82l3.44-0.87
	l-1.37-9.5l1.37-4.92C623.73,321.57,624.83,314.14,621.49,313.26z"/>
<path fill="#333333" d="M621.22,313.26c0,0-5.46-1.09-4.81,12.78c0,0,1.31,10.16,3.61,10.82l3.44-0.87l-1.37-9.5l1.37-4.92
	C623.46,321.57,624.55,314.14,621.22,313.26z"/>
<polygon opacity="0.1" enable-background="new    " points="620.28,337.14 620.28,336.79 622.99,336.11 623.11,336.4 "/>
<polygon opacity="0.1" enable-background="new    " points="620.49,311.05 626.17,315.97 626.33,315.86 620.59,311 "/>
<polygon opacity="0.1" enable-background="new    " points="627.46,335.58 627.44,335.85 628.55,335.71 628.49,335.58 "/>
<path opacity="0.1" enable-background="new    " d="M622.67,308.21c0.8288,0.75,1.885,1.2007,3,1.28
	c0.4337-0.0002,0.865-0.0642,1.28-0.19c0.1406-0.1841,0.298-0.3548,0.47-0.51l-4.26-1.09L622.67,308.21z"/>
<circle fill="#FDD835" cx="624.91" cy="302.86" r="4.42"/>
<circle fill="#FDA57D" cx="625.65" cy="304.91" r="4.42"/>
<path fill="#FDD835" d="M621.25,302.86c0,0-1.66,4.34,1.85,5.67l0,0c1.0201-0.5161,1.4287-1.7614,0.9127-2.7815
	c-0.101-0.1995-0.2335-0.3814-0.3926-0.5385L621.25,302.86z"/>
<circle fill="#FDD835" cx="621.85" cy="299.63" r="2.4"/>
<path fill="#FDD835" d="M629.23,301.89c0,0,1.53,0.37-1.15,1.3c-0.8883,0.3007-1.6124,0.956-2,1.81
	c-0.4622,1.0516-1.6895,1.5295-2.7411,1.0673c-0.0471-0.0208-0.0934-0.0432-0.1389-0.0673l-0.85-0.47l-1.47-3.44l1.75-2l3-0.38
	L629.23,301.89z"/>
<path fill="#FDD835" d="M624.03,299.14c0.0019-1.2764-0.9955-2.3309-2.27-2.4h0.14c1.3282,0,2.405,1.0768,2.405,2.405
	c0,1.3282-1.0768,2.405-2.405,2.405h-0.14C623.0383,301.4806,624.0372,300.4202,624.03,299.14z"/>
<path fill="#FDD835" d="M623,299.14c0.0019-1.2764-0.9955-2.3309-2.27-2.4h0.14c1.3282,0,2.405,1.0768,2.405,2.405
	c0,1.3282-1.0767,2.405-2.405,2.405h-0.14C622.0083,301.4806,623.0072,300.4202,623,299.14z"/>
<ellipse fill="#FDA57D" cx="624.47" cy="306.35" rx="0.44" ry="0.76"/>
<g opacity="0.5">
	
		<linearGradient id="SVGID_5_" gradientUnits="userSpaceOnUse" x1="350.185" y1="-251.6217" x2="350.185" y2="-170.0435" gradientTransform="matrix(1 0 0 -1 -144.58 127.79)">
		<stop  offset="0" style="stop-color:#808080;stop-opacity:0.25"/>
		<stop  offset="0.54" style="stop-color:#808080;stop-opacity:0.12"/>
		<stop  offset="1" style="stop-color:#808080;stop-opacity:0.1"/>
	</linearGradient>
	<path fill="url(#SVGID_5_)" d="M223.82,376.5c-1.24-0.74-1.9-3.19-2.09-4.06l-1.48-19.14c-1.1601-5.3149-2.9529-10.4717-5.34-15.36
		c-0.05-5.37-0.25-22.37-0.73-24.19l-2.86-3.47c0.1411-0.2466,0.2981-0.4838,0.47-0.71l0,0l0.73,2.06l2.63-0.29l-1.42-2.72
		c1.9493-1.5756,2.339-4.3947,0.89-6.44c0.3517-0.4307,0.3517-1.0493,0-1.48c-0.4435-0.5177-0.9708-0.9572-1.56-1.3
		c-2.2-2.1343-5.7136-2.0812-7.848,0.1188c-1.9881,2.0492-2.0971,5.2724-0.252,7.4512c-0.1479,0.1648-0.3381,0.2858-0.55,0.35
		c-0.902,0.2963-1.7025,0.8403-2.31,1.57c-0.349,0.428-0.2849,1.058,0.1432,1.4069c0.0184,0.0151,0.0374,0.0294,0.0569,0.0431
		l0.43,0.27c0.3525,0.2081,0.7962,0.1804,1.12-0.07l0.89-0.74c0.0276-0.0276,0.0724-0.0276,0.1,0c0.0276,0.0276,0.0276,0.0724,0,0.1
		c-0.325,0.3539-0.3016,0.9042,0.0523,1.2292c0.1044,0.0959,0.2306,0.1648,0.3677,0.2007l0,0l0,0
		c-1.0142,1.0631-1.8183,2.3083-2.37,3.67c-1.19,1.45-2.28,4.39-2.2,10.29c-0.0867,1.0734-0.1467,2.2233-0.18,3.45l-1.37,5.67
		c0,0-10.59,19.52-8,22.1c0,0,1.59,0.28,3.82,0.87l-6.34,8.4l0.09,0.08l-4,3c0,0,0.74,1.89,1.26,2.18s0.69,1.49,0.69,1.49
		s1.95,3.95,3.38,3.72s0.4-1.83,0-3.55c-0.31-1.34,0.87-3.36,1.4-4.2l0.14,0.14c0,0,7.52-5.65,10.4-8.81
		c1.5267,0.6511,2.973,1.4766,4.31,2.46c1.7349-4.5587,3.1353-9.2377,4.19-14l0,0l0,0c1.78,2.65,4.77,7.3,4.89,8.75
		c0.17,2.06,0.86,9.56,1.89,11.56l0.74,3.89l0,0l-0.69,5.16c0.7695,0.3485,1.5967,0.5519,2.44,0.6c0.56-0.17,1.55,0.53,1.55,0.53
		s4.2,1.33,5,0.13S225.34,377.4,223.82,376.5z"/>
</g>
<circle cx="209.02" cy="304.93" r="5.31"/>
<path fill="#7A7478" d="M196.28,355.51l-6.9,9.15l2.79,2.68c0,0,9.68-7.27,10.89-9.67c0.0691-0.1264,0.11-0.2663,0.12-0.41
	C203.18,355.45,196.28,355.51,196.28,355.51z"/>
<path fill="#7A7478" d="M209.04,346.09c0,0,5.75,8.22,5.92,10.19s0.82,9.15,1.81,11.06l0.71,3.72h3.56l-1.42-18.4
	c-1.3138-5.9193-3.4124-11.6364-6.24-17l-6.3,3.45L209.04,346.09z"/>
<rect x="208.41" y="315.61" fill="#FFFFFF" width="5.04" height="21.36"/>
<path opacity="0.1" enable-background="new    " d="M212.88,336.07l1.48,3.45c0,0-0.16-22.62-0.71-24.7l-3.56-4.33l-1.2,3.18
	l2.74,3.4c1.024,3.2317,1.5039,6.611,1.42,10C212.77,331.96,212.88,336.07,212.88,336.07z"/>
<polygon points="212.88,308.95 214.74,312.51 212.22,312.79 210.96,309.23 "/>
<circle fill="#FDA57D" cx="210.52" cy="306.38" r="4.55"/>
<path fill="#FDA57D" d="M210.52,312.73c0.3203-0.999,0.8839-1.9028,1.64-2.63l-4.27-1.1l-1,2.36L210.52,312.73z"/>
<path fill="#3AD29F" d="M208.6,310.93c0,0-7.39-0.55-7.89,18.29l-1.29,5.42c0,0-10.13,18.68-7.61,21.14c0,0,9.53,1.7,14.46,5.48
	c2.8125-7.5393,4.7975-15.3619,5.92-23.33c0,0,1.15-15.39-1.1-20.59l1.1-2.63L208.6,310.93z"/>
<path fill="#3AD29F" d="M213.04,336.07l1.48,3.45c0,0-0.16-22.62-0.71-24.7l-3.56-4.33l-1.2,3.18l2.74,3.4
	c1.024,3.2317,1.5039,6.611,1.42,10C212.93,331.96,213.04,336.07,213.04,336.07z"/>
<path opacity="0.05" enable-background="new    " d="M213.04,336.07l1.48,3.45c0,0-0.16-22.62-0.71-24.7l-3.56-4.33l-1.2,3.18
	l2.74,3.4c1.024,3.2317,1.5039,6.611,1.42,10C212.93,331.96,213.04,336.07,213.04,336.07z"/>
<path opacity="0.1" enable-background="new    " d="M204.82,337.93c0,0-0.39,5.79,3.41,7c0.4252,0.1389,0.8826-0.0932,1.0215-0.5184
	c0.0213-0.0652,0.0343-0.133,0.0385-0.2015c0.06-1-0.25-3-2.06-7.1L204.82,337.93z"/>
<path fill="#FDA57D" d="M205.04,337.79c0,0-0.39,5.79,3.41,7c0.4252,0.1389,0.8826-0.0932,1.0215-0.5184
	c0.0213-0.0652,0.0343-0.133,0.0385-0.2015c0.06-1-0.25-3-2.06-7.1L205.04,337.79z"/>
<circle fill="#4D8AF0" cx="211.56" cy="320.73" r="0.22"/>
<circle fill="#4D8AF0" cx="211.56" cy="328.94" r="0.22"/>
<path d="M189.87,364.44l-4.27,3.12c0,0,0.71,1.81,1.2,2.08s0.66,1.42,0.66,1.42s1.86,3.78,3.23,3.56s0.38-1.75,0-3.4
	s1.59-4.38,1.59-4.38L189.87,364.44z"/>
<path d="M217.56,370.79l-0.7,5.24c0.7382,0.3326,1.5315,0.5258,2.34,0.57c0.54-0.17,1.48,0.51,1.48,0.51s4,1.27,4.81,0.13
	s-1-1.49-2.45-2.35s-2.07-4.18-2.07-4.18L217.56,370.79z"/>
<path opacity="0.1" enable-background="new    " d="M205.76,314.79c0,0-5.48-1.1-4.82,12.82c0,0,1.31,10.19,3.61,10.84l3.45-0.88
	l-1.37-9.53l1.37-4.93C208,323.11,209.1,315.64,205.76,314.79z"/>
<path opacity="0.1" enable-background="new    " d="M206.25,314.79c0,0-5.48-1.1-4.82,12.82c0,0,1.31,10.19,3.61,10.84l3.45-0.88
	l-1.37-9.53l1.37-4.93C208.49,323.11,209.59,315.64,206.25,314.79z"/>
<path fill="#3AD29F" d="M205.98,314.79c0,0-5.48-1.1-4.82,12.82c0,0,1.31,10.19,3.61,10.84l3.45-0.88l-1.37-9.53l1.37-4.93
	C208.22,323.11,209.32,315.64,205.98,314.79z"/>
<polygon opacity="0.1" enable-background="new    " points="205.03,338.7 205.03,338.35 207.75,337.66 207.87,337.96 "/>
<polygon opacity="0.1" enable-background="new    " points="205.24,312.54 210.93,317.47 211.1,317.36 205.35,312.49 "/>
<polygon fill="#3AD29F" points="206.85,312.49 210.06,311.88 212.85,315.61 211.23,316.58 "/>
<path d="M214.16,303.85l-2.08,2.2v1.35c-0.0013,0.8817-0.1745,1.7546-0.51,2.57l-1.4,3.4c-0.1936,0.4637-0.7234,0.6862-1.19,0.5
	l-1.18-0.47c-0.4713-0.1899-0.6994-0.7258-0.5096-1.1971c0.0031-0.0076,0.0063-0.0153,0.0096-0.0228l0.33-0.75
	c0.0152-0.0355-0.0013-0.0767-0.0368-0.0919c-0.0295-0.0126-0.0637-0.0036-0.0832,0.0219l-0.67,1
	c-0.2233,0.3199-0.6241,0.4641-1,0.36l-0.65-0.16c-0.4439-0.1143-0.7112-0.5668-0.5969-1.0107
	c0.0346-0.1343,0.1023-0.2579,0.1969-0.3593l0,0c0.0204-0.0328,0.0104-0.076-0.0224-0.0964
	c-0.0204-0.0127-0.046-0.014-0.0676-0.0035l-0.85,0.7c-0.3068,0.255-0.7429,0.2833-1.08,0.07l-0.41-0.26
	c-0.4264-0.2764-0.5479-0.8461-0.2715-1.2724c0.0245-0.0378,0.0518-0.0738,0.0815-0.1076c0.5814-0.6974,1.3472-1.2172,2.21-1.5
	c1-0.28,1.36-2,1.48-3.51c0.1468-1.9372,1.4024-3.614,3.22-4.3c1.8256-0.718,3.9059-0.119,5.07,1.46
	C214.5252,302.7907,214.5294,303.4245,214.16,303.85z"/>
<polygon opacity="0.1" enable-background="new    " points="212.23,336.97 212.21,337.24 213.32,337.11 213.26,336.97 "/>
<path opacity="0.1" enable-background="new    " d="M212.19,337.24h0.41c0,0-1.18,10.55-2.25,10.76l-0.09-0.13
	C210.26,347.87,212.08,339.27,212.19,337.24z"/>
</svg>
