<?xml version="1.0" encoding="utf-8"?>
<!-- Generator: Adobe Illustrator 22.1.0, SVG Export Plug-In . SVG Version: 6.00 Build 0)  -->
<svg version="1.1" id="quote-icon" xmlns="http://www.w3.org/2000/svg" xmlns:xlink="http://www.w3.org/1999/xlink" x="0px" y="0px"
	 viewBox="0 0 122.8761 94.8348" enable-background="new 0 0 122.8761 94.8348" xml:space="preserve">
<g>
	<path fill="#FFFFFF" d="M122.8761,8.2157c-5.3582,1.5487-10.4172,3.7225-15.1806,6.5189
		c-4.761,2.7988-8.8685,5.9827-12.3232,9.5546c-3.4523,3.572-6.19,7.4734-8.2157,11.6982
		c-2.0232,4.2279-3.0364,8.5446-3.0364,12.9483c0,2.5002,0.5084,4.7326,1.5185,6.6972c1.0125,1.9646,2.2935,2.9469,3.8397,2.9469
		c1.5487,0,2.8297-0.2956,3.8397-0.8928c1.0132-0.5948,2.0257-1.2199,3.0364-1.8751c1.0125-0.6534,2.204-1.2785,3.572-1.8758
		c1.3698-0.5942,3.1863-0.8928,5.4471-0.8928c2.3829,0,4.6153,0.5078,6.6972,1.5179c2.0843,1.0132,3.9292,2.4422,5.5366,4.2865
		c1.6074,1.8449,2.8883,3.9878,3.8397,6.4294c0.9545,2.4391,1.429,5.0905,1.429,7.9479c0,3.0944-0.6257,5.9518-1.8758,8.5723
		c-1.2501,2.6174-2.9747,4.9115-5.1793,6.8761c-2.2015,1.9646-4.7912,3.4825-7.769,4.5543
		c-2.9747,1.0712-6.1308,1.6073-9.4652,1.6073c-4.4037,0-8.5112-0.9823-12.3232-2.9469c-3.8095-1.9646-7.1439-4.6437-10.0014-8.0367
		c-2.8574-3.3936-5.0898-7.3228-6.6972-11.7876c-1.608-4.4648-2.4113-9.2591-2.4113-14.3767c0-8.0954,1.5179-15.5379,4.5543-22.3246
		c3.0358-6.7866,7.0853-12.7082,12.1443-17.7703c5.0621-5.0596,10.9559-9.1363,17.6814-12.2337
		c6.728-3.095,13.8411-4.8807,21.3423-5.3582V8.2157z"/>
	<path fill="#FFFFFF" d="M55.7222,8.2157c-5.3582,1.5487-10.4172,3.7225-15.1807,6.5189c-4.761,2.7988-8.8685,5.9827-12.3232,9.5546
		c-3.4523,3.572-6.19,7.4734-8.2157,11.6982c-2.0232,4.2279-3.0364,8.5446-3.0364,12.9483c0,2.5002,0.5084,4.7326,1.5185,6.6972
		c1.0125,1.9646,2.2935,2.9469,3.8397,2.9469c1.5487,0,2.8297-0.2956,3.8397-0.8928c1.0132-0.5948,2.0257-1.2199,3.0364-1.8751
		c1.0125-0.6534,2.204-1.2785,3.572-1.8758c1.3698-0.5942,3.1863-0.8928,5.4471-0.8928c2.3829,0,4.6153,0.5078,6.6972,1.5179
		c2.0843,1.0132,3.9292,2.4422,5.5366,4.2865c1.6073,1.8449,2.8883,3.9878,3.8397,6.4294c0.9545,2.4391,1.429,5.0905,1.429,7.9479
		c0,3.0944-0.6257,5.9518-1.8758,8.5723c-1.2501,2.6174-2.9747,4.9115-5.1793,6.8761c-2.2015,1.9646-4.7912,3.4825-7.769,4.5543
		c-2.9747,1.0712-6.1308,1.6073-9.4652,1.6073c-4.4037,0-8.5112-0.9823-12.3232-2.9469c-3.8095-1.9646-7.1439-4.6437-10.0013-8.0367
		c-2.8574-3.3936-5.0898-7.3228-6.6972-11.7876C0.8034,67.5987,0,62.8044,0,57.6868c0-8.0954,1.5179-15.5379,4.5543-22.3246
		C7.59,28.5756,11.6395,22.654,16.6985,17.592C21.7606,12.5324,27.6544,8.4557,34.38,5.3582C41.108,2.2632,48.2211,0.4776,55.7222,0
		V8.2157z"/>
</g>
</svg>
