<?xml version="1.0" encoding="utf-8"?>
<!-- Generator: Adobe Illustrator 22.1.0, SVG Export Plug-In . SVG Version: 6.00 Build 0)  -->
<svg version="1.1" id="_x39_cedafd9-494f-4d3e-b6f0-d29f99df71e5"
	 xmlns="http://www.w3.org/2000/svg" xmlns:xlink="http://www.w3.org/1999/xlink" x="0px" y="0px" viewBox="0 0 932.4 646.2"
	 style="enable-background:new 0 0 932.4 646.2;" xml:space="preserve">
<style type="text/css">
	.st0{opacity:0.1;fill:#0165B7;enable-background:new    ;}
	.st1{fill:none;stroke:#535461;stroke-width:1.6099;stroke-miterlimit:10;}
	.st2{fill:#0165B7;}
	.st3{opacity:0.25;enable-background:new    ;}
	.st4{opacity:0.1;enable-background:new    ;}
	.st5{opacity:0.2;enable-background:new    ;}
	.st6{opacity:0.1;fill:none;stroke:#000000;stroke-width:0.805;stroke-miterlimit:10;enable-background:new    ;}
	.st7{fill:none;}
	.st8{opacity:0.15;enable-background:new    ;}
	.st9{opacity:0.3;enable-background:new    ;}
	.st10{opacity:0.1;}
	.st11{fill:#FFFFFF;}
	.st12{fill:#FFBD00;}
	.st13{fill:url(#SVGID_1_);}
	.st14{fill:#434175;}
	.st15{fill:#565387;}
	.st16{fill:#EE8E9E;}
</style>
<title>Container ship</title>
<ellipse class="st0" cx="462" cy="591.5" rx="450" ry="54.7"/>
<path class="st1" d="M781.9,618.3c0,0,23.5-29.9,21.6-59.5c-0.9-12.4,2.3-24.8,9.1-35.3c3.3-4.9,6.9-9.6,11-13.8"/>
<path class="st2" d="M822.5,491c-1.7,4.1,1.1,19.2,1.1,19.2s12.3-9,14-13.2c1.7-4.1-0.4-8.8-4.5-10.5
	C828.8,484.9,824.1,486.9,822.5,491z"/>
<path class="st2" d="M800.9,509.1c0.9,4.4,11.3,15.5,11.3,15.5s5.4-14.3,4.6-18.7c-0.9-4.4-5.1-7.2-9.5-6.4
	C802.9,500.4,800,504.7,800.9,509.1L800.9,509.1z"/>
<path class="st2" d="M785.8,548.5c3,3.3,17.6,7.7,17.6,7.7s-2.5-15.1-5.5-18.4c-3-3.3-8.1-3.7-11.4-0.7
	C783.1,540.1,782.8,545.2,785.8,548.5L785.8,548.5L785.8,548.5z"/>
<path class="st2" d="M781.1,581c2.4,3.8,16,10.6,16,10.6s0.1-15.3-2.3-19.1c-2.3-3.8-7.3-5-11.1-2.6
	C779.9,572.2,778.7,577.2,781.1,581L781.1,581z"/>
<path class="st2" d="M827.7,531.7c-4.1,1.7-19.2-0.8-19.2-0.8s8.9-12.4,13-14.1c4.1-1.7,8.9,0.3,10.6,4.4
	C833.8,525.3,831.8,530,827.7,531.7L827.7,531.7L827.7,531.7z"/>
<path class="st2" d="M821.7,569.5c-4.4,0.4-18-6.5-18-6.5s12.2-9.2,16.6-9.6c4.4-0.4,8.4,2.9,8.8,7.3
	C829.4,565.2,826.1,569.1,821.7,569.5L821.7,569.5L821.7,569.5z"/>
<path class="st2" d="M810.8,605.6c-4.3,1.1-18.9-3.4-18.9-3.4s10.5-11.1,14.8-12.3c4.3-1.1,8.7,1.4,9.9,5.8
	C817.7,600,815.1,604.4,810.8,605.6L810.8,605.6z"/>
<path class="st3" d="M822.5,491c-1.7,4.1,1.1,19.2,1.1,19.2s12.3-9,14-13.2c1.7-4.1-0.4-8.8-4.5-10.5
	C828.8,484.9,824.1,486.9,822.5,491z"/>
<path class="st3" d="M800.9,509.1c0.9,4.4,11.3,15.5,11.3,15.5s5.4-14.3,4.6-18.7c-0.9-4.4-5.1-7.2-9.5-6.4
	C802.9,500.4,800,504.7,800.9,509.1L800.9,509.1z"/>
<path class="st3" d="M785.8,548.5c3,3.3,17.6,7.7,17.6,7.7s-2.5-15.1-5.5-18.4c-3-3.3-8.1-3.7-11.4-0.7
	C783.1,540.1,782.8,545.2,785.8,548.5L785.8,548.5L785.8,548.5z"/>
<path class="st3" d="M781.1,581c2.4,3.8,16,10.6,16,10.6s0.1-15.3-2.3-19.1c-2.3-3.8-7.3-5-11.1-2.6
	C779.9,572.2,778.7,577.2,781.1,581L781.1,581z"/>
<path class="st3" d="M827.7,531.7c-4.1,1.7-19.2-0.8-19.2-0.8s8.9-12.4,13-14.1c4.1-1.7,8.9,0.3,10.6,4.4
	C833.8,525.3,831.8,530,827.7,531.7L827.7,531.7L827.7,531.7z"/>
<path class="st3" d="M821.7,569.5c-4.4,0.4-18-6.5-18-6.5s12.2-9.2,16.6-9.6c4.4-0.4,8.4,2.9,8.8,7.3
	C829.4,565.2,826.1,569.1,821.7,569.5L821.7,569.5L821.7,569.5z"/>
<path class="st3" d="M810.8,605.6c-4.3,1.1-18.9-3.4-18.9-3.4s10.5-11.1,14.8-12.3c4.3-1.1,8.7,1.4,9.9,5.8
	C817.7,600,815.1,604.4,810.8,605.6L810.8,605.6z"/>
<path class="st1" d="M782.1,617.1c0,0,33.6-17.8,43.8-45.6c4.2-11.7,12.1-21.7,22.5-28.6c5-3.2,10.2-5.9,15.7-8.2"/>
<path class="st2" d="M870.8,517.2c-3.2,3.1-6.8,18-6.8,18s14.9-3.3,18.1-6.4c3.2-3.1,3.3-8.2,0.1-11.4
	C879.1,514.1,874,514,870.8,517.2L870.8,517.2z"/>
<path class="st2" d="M843.8,524.9c-1,4.4,4,18.8,4,18.8s10.7-10.9,11.7-15.2c1-4.4-1.7-8.7-6.1-9.7
	C849,517.8,844.7,520.5,843.8,524.9L843.8,524.9z"/>
<path class="st2" d="M813.9,554.8c1.3,4.3,13,14.2,13,14.2s3.8-14.8,2.4-19c-1.3-4.3-5.9-6.6-10.2-5.3
	C814.9,546,812.6,550.6,813.9,554.8L813.9,554.8z"/>
<path class="st2" d="M796.5,582.6c0.6,4.4,10.4,16.1,10.4,16.1s6.2-13.9,5.6-18.4c-0.6-4.4-4.7-7.5-9.1-6.9
	C799,574.1,795.9,578.2,796.5,582.6L796.5,582.6z"/>
<path class="st2" d="M859,556.4c-4.5-0.1-17.2-8.5-17.2-8.5s13.2-7.7,17.6-7.6c4.5,0.1,8,3.8,7.9,8.3
	C867.2,553,863.5,556.5,859,556.4L859,556.4L859,556.4z"/>
<path class="st2" d="M838.2,588.6c-4.2-1.4-13.9-13.3-13.9-13.3s14.9-3.5,19.1-2c4.2,1.4,6.5,6,5,10.3
	C847,587.8,842.4,590,838.2,588.6z"/>
<path class="st2" d="M813.7,617.1c-4.4-0.7-15.9-10.8-15.9-10.8s14.1-5.9,18.5-5.2c4.4,0.7,7.4,4.9,6.7,9.3S818.1,617.8,813.7,617.1
	L813.7,617.1z"/>
<path class="st2" d="M489.3,254.8h-20c0-1.5,0.1-3.1,0.3-4.6c0.6-5.5,2.6-14.3,8.5-18.5c5.6-3.9,12.9,2,10,8.2l-0.1,0.2
	c-1.1,2.2-1.1,5-0.7,7.6C487.7,250,488.4,252.4,489.3,254.8z"/>
<path class="st4" d="M489.3,254.8h-20c0-1.5,0.1-3.1,0.3-4.6c5.6-2.1,11.7-3,17.7-2.6C487.7,250,488.4,252.4,489.3,254.8z"/>
<path class="st2" d="M502.3,275.9c-5.2,4.2-12.5,4.3-19.9,2.5c-15.2-3.7-31.1-15.4-31.1-15.4c1.1-1.2,2.2-2.3,3.5-3.4
	c6.3-5.4,20.6-14.9,39.8-10.2c4.7,1.1,8.8,3.8,11.6,7.8C509.4,262,511.1,268.8,502.3,275.9z"/>
<path class="st4" d="M496.2,267.5c0,0-11.6-9.9-27.5,3.2"/>
<path class="st2" d="M170.7,350.5c0,0-37.3-28.7-39.2-2.7s7.5,50.4,15.6,52.6S170.7,350.5,170.7,350.5z"/>
<path class="st5" d="M170.7,350.5c0,0-37.3-28.7-39.2-2.7s7.5,50.4,15.6,52.6S170.7,350.5,170.7,350.5z"/>
<path class="st4" d="M146.2,359.7c0,0,0.9,23.9,8.3,20.1S151.1,360.7,146.2,359.7z"/>
<path class="st2" d="M262.3,554.6c-0.9,3.7-2.2,7.2-4,10.6c-0.5,0.9-1,1.8-1.5,2.7c-8.8,14.6-29.1,20.7-29.1,17.4s-2-11.5-7.1-9.1
	s-12.9,1.9-12.9,1.9c-14-1.1-11.7-14.9-7-26.6c1.5-3.9,3.3-7.6,5.3-11.3c1.8-3.2,3.1-5.3,3.1-5.3l53.7,8.6
	C262.7,543.4,263.9,547.7,262.3,554.6z"/>
<path class="st4" d="M482.4,278.4c-15.2-3.7-31.1-15.4-31.1-15.4c1.1-1.2,2.2-2.3,3.5-3.4c2.3,1.2,4.6,2.5,7,3.9
	C469.1,267.9,476,272.8,482.4,278.4z"/>
<path class="st4" d="M262.3,554.6c-14.6-1.3-35.7-4.9-56.3-14.4c1.8-3.2,3.1-5.3,3.1-5.3l53.7,8.6
	C262.7,543.5,263.9,547.7,262.3,554.6z"/>
<path class="st2" d="M488.4,485c0,0-1,17.2-10.7,36.6c-7.5,15.3-19,28.2-33.3,37.4c0,0-8.6,7-9.1-12.3c0,0-3.8-4-29.5,13.6
	c0,0-15.5,9.5-11.3-30.1c0,0,0,0,0-0.1s-0.4,0.2-1.1,0.7h0c-1.8,1.1-5.7,3.4-10.4,5.8c-8.5,4.3-19.5,8.6-25,5.9
	c-1.3,10-4.3,19.7-9.1,28.6c-5.4,9.8-13.9,19.5-27.3,23.8c-6.9,2.2-14.4,0.4-19.5-4.7l-1.5-1.5c0,0-11.8,8-17.7,5.4
	c-5.9-2.7-10.7-10.2-2.7-24.1c0,0,0.4-1.2,0.9-2.9c1.3-4.3,3.2-12.1,0.1-13.2c0,0-125,6.4-141.7-104.6S232.9,297.2,264,301.4
	c0,0,82.6-104.1,197-37S488.4,485,488.4,485z"/>
<path class="st6" d="M264,301.4c0,0,136.2-0.5,126.9,176"/>
<path class="st5" d="M258.3,565.2c-0.5,0.9-1,1.8-1.5,2.7c-8.8,14.6-29.1,20.7-29.1,17.4s-2-11.5-7.1-9.1s-12.9,1.9-12.9,1.9
	c-14-1.1-11.7-14.9-7-26.6C213.9,558.1,237.7,567.9,258.3,565.2z"/>
<path class="st5" d="M348.8,571c-5.4,9.8-13.9,19.5-27.3,23.8c-6.9,2.2-14.4,0.4-19.5-4.7l-1.5-1.5c0,0-11.8,8-17.7,5.4
	c-5.9-2.7-10.7-10.2-2.7-24.1c0,0,0.4-1.2,0.9-2.9C291.6,570.6,319.5,578.5,348.8,571z"/>
<path class="st4" d="M394.4,530.1c48.6-25.2,56.9-45.3,56.9-45.3"/>
<path class="st5" d="M477.7,521.6c-7.5,15.3-19,28.2-33.3,37.4c0,0-8.6,7-9.1-12.3c0,0-3.8-4-29.5,13.6c0,0-15.5,9.5-11.3-30.1
	l12.9-7.1C435.1,538.4,463,529,477.7,521.6z"/>
<path class="st2" d="M278.5,317c0,0,27.4-41.9,48-28.7c20.7,13.1-3.8,62.2-3.8,62.2S282.3,349.7,278.5,317z"/>
<path class="st5" d="M278.5,317c0,0,27.4-41.9,48-28.7c20.7,13.1-3.8,62.2-3.8,62.2S282.3,349.7,278.5,317z"/>
<path class="st4" d="M323.1,305.5c0,0-36,17.4-25,27.6C309.1,343.3,323.1,305.5,323.1,305.5z"/>
<path class="st7" d="M418.3,258.2c-9.2,0.8-18.3,2.4-27.2,4.8l-0.2,0.1c-12.6,3.5-26.9,9.4-36.7,19.2c0,0-22.8-9.7-29-8
	c0,0,18.5-22.5,68.3-23.1h0.1C393.6,251.2,406.5,252.3,418.3,258.2z"/>
<ellipse transform="matrix(0.9744 -0.225 0.225 0.9744 -91.9902 62.2182)" class="st4" cx="227" cy="434.8" rx="50.2" ry="41.6"/>
<ellipse transform="matrix(0.9744 -0.225 0.225 0.9744 -91.6283 62.1769)" class="st2" cx="227" cy="433.2" rx="50.2" ry="41.6"/>
<ellipse transform="matrix(0.9744 -0.225 0.225 0.9744 -91.6283 62.1769)" class="st5" cx="227" cy="433.2" rx="50.2" ry="41.6"/>
<path class="st4" d="M205.8,433.2c0,0,0.5,15.6,5.1,11C215.5,439.6,211.2,433.2,205.8,433.2z"/>
<path class="st4" d="M231.8,421.3c0,0,0.5,15.6,5.1,11C241.5,427.8,237.2,421.3,231.8,421.3z"/>
<path class="st4" d="M275.9,510.5c0,0,11.2,11,24.9-4.3"/>
<path class="st8" d="M325.2,274.3c6.2-1.6,29,8,29,8c9.8-9.8,24.1-15.7,36.7-19.2l2.6-11.9C343.7,251.8,325.2,274.3,325.2,274.3z"/>
<path class="st9" d="M393.6,251.3l-2.5,11.8c8.9-2.4,18-4.1,27.2-4.8C406.5,252.3,393.6,251.3,393.6,251.3z"/>
<path class="st8" d="M393.5,251.3l-2.6,11.9l0.2-0.1l2.5-11.8H393.5z"/>
<g class="st10">
	<path class="st11" d="M285.8,574.8c0,0,0.4-1.2,0.9-2.9c1.3-4.3,3.2-12.1,0.1-13.2c0,0-1.4,0.1-4,0.1c-0.3,2.8-0.9,5.6-1.7,8.3
		c-0.5,1.7-0.9,2.9-0.9,2.9c-8,14-3.2,21.5,2.7,24.1l0.3,0.1C280.8,590.2,280.6,583.8,285.8,574.8z"/>
	<path class="st11" d="M145.2,454.1c-16.6-111.1,96.9-156.2,128-151.9l-9.2-0.5c-31.1-4.3-141.1,36.5-124.5,147.6
		c5.2,34.9,21.2,58.2,40.6,73.8C163.3,507.6,149.9,485.5,145.2,454.1z"/>
	<path class="st11" d="M400.1,535.2C400.1,535.2,400.1,535.1,400.1,535.2c0-0.1-0.4,0.2-1.1,0.6h0c-1.1,0.7-2.9,1.7-5.2,3
		c-0.8,18.3,3.9,22.3,7.7,22.6C399.5,557.1,398.6,549.3,400.1,535.2z"/>
	<path class="st11" d="M440.9,551.7c0,0-1-1-5.2,0.2c1.1,8,4.2,8.9,6.4,8.4C441.3,557.5,440.9,554.6,440.9,551.7z"/>
</g>
<path class="st4" d="M281.2,553.7c0,0,69.8-4.3,76.7-11.3"/>
<ellipse class="st12" cx="448.7" cy="534.9" rx="30.2" ry="32.1"/>
<ellipse class="st4" cx="448.7" cy="534.9" rx="30.2" ry="32.1"/>
<ellipse class="st12" cx="453.9" cy="535.6" rx="30.2" ry="31.4"/>
<path class="st12" d="M466.2,564l-3.1-1.7c0,0-1.5,6.1-1,10.5c0.1,0.9,0.7,1.7,1.6,1.9c7.2,1.8,41.7,9.5,65.4-1.3
	c0.7-0.3,1.2-1,1.3-1.7c0.3-2.7-0.7-8.2-1.1-9.3C528.3,560,466.2,564,466.2,564z"/>
<path class="st4" d="M466.2,564l-3.1-1.7c0,0-1.5,6.1-1,10.5c0.1,0.9,0.7,1.7,1.6,1.9c7.2,1.8,41.7,9.5,65.4-1.3
	c0.7-0.3,1.2-1,1.3-1.7c0.3-2.7-0.7-8.2-1.1-9.3C528.3,560,466.2,564,466.2,564z"/>
<ellipse class="st12" cx="496.1" cy="562.3" rx="33.1" ry="7.5"/>
<path class="st12" d="M478.9,553l-3.1-1.7c0,0-1.5,6.1-1,10.5c0.1,0.9,0.7,1.6,1.6,1.9c7.2,1.8,41.7,9.5,65.4-1.3
	c0.7-0.3,1.2-1,1.3-1.7c0.3-2.7-0.7-8.2-1.2-9.3C541,549,478.9,553,478.9,553z"/>
<path class="st4" d="M478.9,553l-3.1-1.7c0,0-1.5,6.1-1,10.5c0.1,0.9,0.7,1.6,1.6,1.9c7.2,1.8,41.7,9.5,65.4-1.3
	c0.7-0.3,1.2-1,1.3-1.7c0.3-2.7-0.7-8.2-1.2-9.3C541,549,478.9,553,478.9,553z"/>
<ellipse class="st12" cx="508.8" cy="551.3" rx="33.1" ry="7.5"/>
<path class="st12" d="M490,538.6l-3.1-1.7c0,0-1.5,6.1-1,10.5c0.1,0.9,0.7,1.7,1.6,1.9c7.2,1.8,41.7,9.5,65.4-1.3
	c0.7-0.3,1.2-1,1.3-1.7c0.3-2.7-0.7-8.2-1.2-9.3C552.2,534.5,490,538.6,490,538.6z"/>
<path class="st4" d="M490,538.6l-3.1-1.7c0,0-1.5,6.1-1,10.5c0.1,0.9,0.7,1.7,1.6,1.9c7.2,1.8,41.7,9.5,65.4-1.3
	c0.7-0.3,1.2-1,1.3-1.7c0.3-2.7-0.7-8.2-1.2-9.3C552.2,534.5,490,538.6,490,538.6z"/>
<ellipse class="st12" cx="520" cy="536.8" rx="33.1" ry="7.5"/>
<path class="st12" d="M477.6,523.5l-3.1-1.8c0,0-1.5,6.1-1,10.5c0.1,0.9,0.7,1.6,1.6,1.9c7.2,1.8,41.7,9.5,65.4-1.3
	c0.7-0.3,1.2-1,1.3-1.7c0.3-2.7-0.7-8.2-1.2-9.3C539.8,519.4,477.6,523.5,477.6,523.5z"/>
<path class="st4" d="M477.6,523.5l-3.1-1.8c0,0-1.5,6.1-1,10.5c0.1,0.9,0.7,1.6,1.6,1.9c7.2,1.8,41.7,9.5,65.4-1.3
	c0.7-0.3,1.2-1,1.3-1.7c0.3-2.7-0.7-8.2-1.2-9.3C539.8,519.4,477.6,523.5,477.6,523.5z"/>
<ellipse class="st12" cx="507.6" cy="521.8" rx="33.1" ry="7.5"/>
<path class="st12" d="M505.5,511.4l-3.1-1.8c0,0-1.5,6.1-1,10.5c0.1,0.9,0.7,1.7,1.6,1.9c7.2,1.8,41.7,9.5,65.4-1.3
	c0.7-0.3,1.2-1,1.3-1.7c0.3-2.7-0.7-8.2-1.2-9.3C567.6,507.3,505.5,511.4,505.5,511.4z"/>
<path class="st4" d="M505.5,511.4l-3.1-1.8c0,0-1.5,6.1-1,10.5c0.1,0.9,0.7,1.7,1.6,1.9c7.2,1.8,41.7,9.5,65.4-1.3
	c0.7-0.3,1.2-1,1.3-1.7c0.3-2.7-0.7-8.2-1.2-9.3C567.6,507.3,505.5,511.4,505.5,511.4z"/>
<ellipse class="st12" cx="535.4" cy="509.7" rx="33.1" ry="7.5"/>
<path class="st12" d="M486.7,503.3l-3.1-1.8c0,0-1.5,6.1-1,10.5c0.1,0.9,0.7,1.6,1.6,1.9c7.2,1.8,41.7,9.5,65.4-1.3
	c0.7-0.3,1.2-1,1.3-1.7c0.3-2.7-0.7-8.2-1.2-9.3C548.8,499.2,486.7,503.3,486.7,503.3z"/>
<path class="st4" d="M486.7,503.3l-3.1-1.8c0,0-1.5,6.1-1,10.5c0.1,0.9,0.7,1.6,1.6,1.9c7.2,1.8,41.7,9.5,65.4-1.3
	c0.7-0.3,1.2-1,1.3-1.7c0.3-2.7-0.7-8.2-1.2-9.3C548.8,499.2,486.7,503.3,486.7,503.3z"/>
<ellipse class="st12" cx="516.6" cy="501.5" rx="33.1" ry="7.5"/>
<path class="st12" d="M499.2,487.6l-3.1-1.8c0,0-1.5,6.1-1,10.5c0.1,0.9,0.7,1.7,1.6,1.9c7.2,1.8,41.7,9.5,65.4-1.3
	c0.7-0.3,1.2-1,1.3-1.7c0.3-2.7-0.7-8.2-1.2-9.3C561.4,483.5,499.2,487.6,499.2,487.6z"/>
<path class="st4" d="M499.2,487.6l-3.1-1.8c0,0-1.5,6.1-1,10.5c0.1,0.9,0.7,1.7,1.6,1.9c7.2,1.8,41.7,9.5,65.4-1.3
	c0.7-0.3,1.2-1,1.3-1.7c0.3-2.7-0.7-8.2-1.2-9.3C561.4,483.5,499.2,487.6,499.2,487.6z"/>
<ellipse class="st12" cx="529.2" cy="485.9" rx="33.1" ry="7.5"/>
<path class="st12" d="M505.4,469l-3.1-1.8c0,0-1.5,6.1-1,10.5c0.1,0.9,0.7,1.6,1.6,1.9c7.2,1.8,41.7,9.5,65.4-1.3
	c0.7-0.3,1.2-1,1.3-1.7c0.3-2.7-0.7-8.2-1.2-9.3C567.6,464.9,505.4,469,505.4,469z"/>
<path class="st4" d="M505.4,469l-3.1-1.8c0,0-1.5,6.1-1,10.5c0.1,0.9,0.7,1.6,1.6,1.9c7.2,1.8,41.7,9.5,65.4-1.3
	c0.7-0.3,1.2-1,1.3-1.7c0.3-2.7-0.7-8.2-1.2-9.3C567.6,464.9,505.4,469,505.4,469z"/>
<ellipse class="st12" cx="535.4" cy="467.3" rx="33.1" ry="7.5"/>
<path class="st12" d="M561.3,568.4l-3.1-1.8c0,0-1.5,6.1-1,10.5c0.1,0.9,0.7,1.7,1.6,1.9c7.2,1.8,41.7,9.5,65.4-1.3
	c0.7-0.3,1.2-1,1.3-1.8c0.3-2.7-0.7-8.2-1.1-9.3C623.4,564.3,561.3,568.4,561.3,568.4z"/>
<path class="st4" d="M561.3,568.4l-3.1-1.8c0,0-1.5,6.1-1,10.5c0.1,0.9,0.7,1.7,1.6,1.9c7.2,1.8,41.7,9.5,65.4-1.3
	c0.7-0.3,1.2-1,1.3-1.8c0.3-2.7-0.7-8.2-1.1-9.3C623.4,564.3,561.3,568.4,561.3,568.4z"/>
<ellipse class="st12" cx="591.2" cy="566.6" rx="33.1" ry="7.5"/>
<path class="st12" d="M572.5,553.9l-3.1-1.8c0,0-1.5,6.1-1,10.5c0.1,0.9,0.7,1.6,1.6,1.9c7.2,1.8,41.7,9.5,65.4-1.3
	c0.7-0.3,1.2-1,1.3-1.7c0.3-2.7-0.7-8.2-1.2-9.3C634.6,549.8,572.5,553.9,572.5,553.9z"/>
<path class="st4" d="M572.5,553.9l-3.1-1.8c0,0-1.5,6.1-1,10.5c0.1,0.9,0.7,1.6,1.6,1.9c7.2,1.8,41.7,9.5,65.4-1.3
	c0.7-0.3,1.2-1,1.3-1.7c0.3-2.7-0.7-8.2-1.2-9.3C634.6,549.8,572.5,553.9,572.5,553.9z"/>
<ellipse class="st12" cx="602.4" cy="552.1" rx="33.1" ry="7.5"/>
<path class="st12" d="M560.1,538.8l-3.1-1.7c0,0-1.5,6.1-1,10.5c0.1,0.9,0.7,1.6,1.6,1.9c7.2,1.8,41.7,9.5,65.4-1.3
	c0.7-0.3,1.2-1,1.3-1.7c0.3-2.7-0.7-8.2-1.2-9.3C622.2,534.8,560.1,538.8,560.1,538.8z"/>
<path class="st4" d="M560.1,538.8l-3.1-1.7c0,0-1.5,6.1-1,10.5c0.1,0.9,0.7,1.6,1.6,1.9c7.2,1.8,41.7,9.5,65.4-1.3
	c0.7-0.3,1.2-1,1.3-1.7c0.3-2.7-0.7-8.2-1.2-9.3C622.2,534.8,560.1,538.8,560.1,538.8z"/>
<ellipse class="st12" cx="590" cy="537.1" rx="33.1" ry="7.5"/>
<path class="st12" d="M587.9,526.7l-3.1-1.7c0,0-1.5,6.1-1,10.5c0.1,0.9,0.7,1.7,1.6,1.9c7.2,1.8,41.7,9.5,65.4-1.3
	c0.7-0.3,1.2-1,1.3-1.7c0.3-2.7-0.7-8.2-1.1-9.3C650.1,522.7,587.9,526.7,587.9,526.7z"/>
<path class="st4" d="M587.9,526.7l-3.1-1.7c0,0-1.5,6.1-1,10.5c0.1,0.9,0.7,1.7,1.6,1.9c7.2,1.8,41.7,9.5,65.4-1.3
	c0.7-0.3,1.2-1,1.3-1.7c0.3-2.7-0.7-8.2-1.1-9.3C650.1,522.7,587.9,526.7,587.9,526.7z"/>
<ellipse class="st12" cx="617.9" cy="525" rx="33.1" ry="7.5"/>
<path class="st12" d="M569.1,518.6l-3.1-1.7c0,0-1.5,6.1-1,10.5c0.1,0.9,0.7,1.6,1.6,1.9c7.2,1.8,41.7,9.5,65.4-1.3
	c0.7-0.3,1.2-1,1.3-1.7c0.3-2.7-0.7-8.2-1.2-9.3C631.3,514.6,569.1,518.6,569.1,518.6z"/>
<path class="st4" d="M569.1,518.6l-3.1-1.7c0,0-1.5,6.1-1,10.5c0.1,0.9,0.7,1.6,1.6,1.9c7.2,1.8,41.7,9.5,65.4-1.3
	c0.7-0.3,1.2-1,1.3-1.7c0.3-2.7-0.7-8.2-1.2-9.3C631.3,514.6,569.1,518.6,569.1,518.6z"/>
<ellipse class="st12" cx="599.1" cy="516.9" rx="33.1" ry="7.5"/>
<path class="st12" d="M581.7,502.9l-3.1-1.7c0,0-1.5,6.1-1,10.5c0.1,0.9,0.7,1.7,1.6,1.9c7.2,1.8,41.7,9.5,65.4-1.3
	c0.7-0.3,1.2-1,1.3-1.7c0.3-2.7-0.7-8.2-1.2-9.3C643.8,498.9,581.7,502.9,581.7,502.9z"/>
<path class="st4" d="M581.7,502.9l-3.1-1.7c0,0-1.5,6.1-1,10.5c0.1,0.9,0.7,1.7,1.6,1.9c7.2,1.8,41.7,9.5,65.4-1.3
	c0.7-0.3,1.2-1,1.3-1.7c0.3-2.7-0.7-8.2-1.2-9.3C643.8,498.9,581.7,502.9,581.7,502.9z"/>
<ellipse class="st12" cx="611.6" cy="501.2" rx="33.1" ry="7.5"/>
<path class="st12" d="M587.9,484.3l-3.1-1.7c0,0-1.5,6.1-1,10.5c0.1,0.9,0.7,1.7,1.6,1.9c7.2,1.8,41.7,9.5,65.4-1.3
	c0.7-0.3,1.2-1,1.3-1.7c0.3-2.7-0.7-8.2-1.2-9.3C650,480.3,587.9,484.3,587.9,484.3z"/>
<path class="st4" d="M587.9,484.3l-3.1-1.7c0,0-1.5,6.1-1,10.5c0.1,0.9,0.7,1.7,1.6,1.9c7.2,1.8,41.7,9.5,65.4-1.3
	c0.7-0.3,1.2-1,1.3-1.7c0.3-2.7-0.7-8.2-1.2-9.3C650,480.3,587.9,484.3,587.9,484.3z"/>
<ellipse class="st12" cx="617.8" cy="482.6" rx="33.1" ry="7.5"/>
<path class="st12" d="M340.9,253c0-17.3,13.5-31.4,30.2-31.4c1.6,0,3.3,0.1,4.9,0.4c-3.2-1.2-6.7-1.8-10.1-1.8
	c-16.7,0-30.2,14.4-30.2,32.1c0,13.3,7.6,24.7,18.5,29.6c0.5-0.5,1.2-1,1.9-1.6C346.6,274.5,340.8,264.2,340.9,253z"/>
<path class="st4" d="M340.9,253c0-17.3,13.5-31.4,30.2-31.4c1.6,0,3.3,0.1,4.9,0.4c-3.2-1.2-6.7-1.8-10.1-1.8
	c-16.7,0-30.2,14.4-30.2,32.1c0,13.3,7.6,24.7,18.5,29.6c0.5-0.5,1.2-1,1.9-1.6C346.6,274.5,340.8,264.2,340.9,253z"/>
<path class="st12" d="M396.1,252.4c0,3.5-0.5,7-1.6,10.3c1.8-0.4,3.8-0.8,5.7-1.2c0.7-2.7,1.1-5.6,1.1-8.4c0-15.6-11-28.5-25.3-31
	C387.7,226.5,396.1,238.4,396.1,252.4z"/>
<path class="st12" d="M340.9,253c-0.1,11.1,5.7,21.5,15.3,27.3c5.7-4.5,18.2-12.8,38.4-17.7c1.1-3.3,1.6-6.8,1.6-10.3
	c0-14-8.4-25.8-20.1-30.3c-1.6-0.3-3.2-0.4-4.9-0.4C354.4,221.7,340.9,235.7,340.9,253z"/>
<linearGradient id="SVGID_1_" gradientUnits="userSpaceOnUse" x1="729.9815" y1="-30.0706" x2="729.9815" y2="375.7285" gradientTransform="matrix(1 0 0 -1 -41 599.41)">
	<stop  offset="0" style="stop-color:#808080;stop-opacity:0.25"/>
	<stop  offset="0.54" style="stop-color:#808080;stop-opacity:0.12"/>
	<stop  offset="1" style="stop-color:#808080;stop-opacity:0.1"/>
</linearGradient>
<path class="st13" d="M787.3,612.2c-4.6-0.2-4.8-1.9-10.7-5c-3.3-1.7-8.4-6.8-12.2-10.9l-0.9-1h1.6c0,0-1.5-13-0.2-16.1
	c1.3-3.1,0.3-21.4,0.3-21.4s0.8-14-0.7-17.2c-1.5-3.2,0.5-24,0.5-24s1.3-12.3,1.6-37.5c0.3-25.2-14.5-26-14.5-26s-2-0.2-5-0.4
	l-0.9-0.1c1.9-4,3.1-7.1,3.1-7.1s-2.5-23.5-3.1-27.6s-4.6-20.8-4.6-20.8s-2.8-7.1-4.4-12.2c-1.7-5-6.6-10.9-6.6-10.9
	s-8.9-17.5-11.4-20.1c-1.1-1.2-2.8-2.7-4.1-4l-0.7-0.7c0.4-1.8,0.6-3.7,0.6-5.6c0,0-9.2-9.1-9.9-11.4c-0.7-2.3-9.4-10.7-9.4-10.7
	s-4.9-9.1-10.5-9.2c-2.6-0.2-5.3-0.1-7.9,0.2c1.2-4.3,2.5-8.7,3.7-12.5c0.1-0.4,0.3-0.8,0.4-1.2c4.5-3,8-7.3,10.1-12.2
	c0.1-0.3,0.2-0.5,0.3-0.8h0.2c0.2,0,0.5,0,0.7-0.1c1.8-0.3,3.4-2.4,2.6-4c0.1,0.2,0.3,0.3,0.5,0.3c0.6,0,1.4-0.9,1.5-1.7
	c0-0.1,0-0.3,0.1-0.4c0-0.1,0.1-0.3,0.1-0.5c0-0.2,0-0.3,0-0.5s0-0.3,0-0.5s0-0.3,0-0.5s0-0.4,0-0.5s0-0.3,0-0.4c0-0.1,0-0.4,0-0.7
	c0-0.1,0-0.2,0-0.3l0,0c-0.1-0.9-0.3-1.8-0.5-2.6c-0.9-3-2.8-6-2.1-9.1v-0.1l0,0c0.6-2.4,2.7-4.1,3.9-6.2c0.1-0.2,0.2-0.4,0.3-0.6
	c0,0,0-0.1,0.1-0.1c0.1-0.2,0.1-0.3,0.2-0.5l0.1-0.3c0.1-0.1,0.1-0.3,0.1-0.4c0-0.1,0.1-0.3,0.1-0.4c0-0.1,0.1-0.3,0.1-0.4
	s0.1-0.3,0.1-0.5s0-0.2,0.1-0.3s0-0.4,0.1-0.5s0-0.2,0-0.3s0-0.4,0-0.6v-0.2c0-0.2,0-0.4,0-0.7c0-0.1,0-0.1,0-0.2
	c0-0.2,0-0.5-0.1-0.7c0,0,0-0.1,0-0.1l0,0c-0.3-2-1.1-4-2.4-5.6c-2.9-3.5-7.3-5.4-11.8-5.1c-1.2,0.1-2.5,0.2-3.7,0.1
	c-2.1-0.3-3.8-1.6-5.5-2.9l-13.8-10.6c-1.5-1.3-3.3-2.4-5.2-3.1c-1.9-0.6-4.3-0.4-5.7,1c-2.6,2.5-0.9,6.9-2,10.4c-0.9,3-3.8,5-6.8,6
	s-6.2,1.2-9.3,2c-0.9,0.1-1.8,0.5-2.5,1.1c-0.8,1-1.2,2.2-1.1,3.5c0,3.1,0.7,6.1,2.1,8.8c0.6,1.1,1.3,2.2,1.9,3.3l0.2,0.3l0.2,0.4
	c0.1,0.2,0.2,0.4,0.3,0.6l0.1,0.3l0.2,0.5c0,0.1,0.1,0.2,0.1,0.3s0.1,0.4,0.2,0.5c0.3,1,0.4,2.2,0.1,3.2c-0.5,1.7-1.8,3.1-3,4.5
	c-1,1.1-1.7,2.4-2,3.8l0,0c-0.1,0.3-0.1,0.7,0,1c0,0,0,0.1,0,0.1c0,0.1,0,0.1,0.1,0.2c0,0.1,0,0.1,0.1,0.2c0,0.1,0.1,0.1,0.1,0.2
	c0.1,0.1,0.1,0.2,0.2,0.2l0.1,0.1c0.1,0,0.1,0.1,0.2,0.1l0.1,0.1l0.3,0.1h0.1c0.2,0,0.4,0,0.5,0h0.2c0.2,0,0.3,0,0.5-0.1h0.2
	c0.3-0.1,0.5-0.1,0.8-0.2c0.9-0.3,1.8-0.6,2.7-1.1c0,0.1,0,0.2,0,0.3c0,0.1,0,0.3,0,0.5c0,3.2,0.6,6.3,1.8,9.3
	c1.8,4.6,4.7,8.7,8.6,11.9c0,0.3-0.1,0.6-0.2,0.8c-0.8,3.9-2.5,7.8-3.5,7.5c-1-0.2-2-0.3-3.1-0.3h-0.9l0,0c-0.9-0.1-1.9-0.1-2.8,0
	c-0.4,0-0.8,0-1.2-0.2c-2.7-0.8-5.5-1-8.2-0.5c-5.7,1.2-14.3,3.3-16.7,5.9c-3.6,3.9-8.9,7.6-14.8,23.9c0,0-3,9.9-5.3,11.2
	c0.5-0.3,1-0.5,1.6-0.7c-0.3,0.5-0.7,1-1.2,1.4c0.8-0.4,1.7-0.8,2.6-1.1c-1.8,10.6,0.9,40.8,0.9,40.8s-2.1,5.2,0.7,8.3
	c1.7,1.8,2.6,4.7,3,6.7l-0.4,0.6l0,0c-1.5,2.3-3.5,5.3-4.8,6.9c-2.3,2.9-1.7,12.2-1.7,12.2s-0.5,4.4-2.1,6c-1.6,1.6-1.3,7.6-1.3,7.6
	l-4.2,15.8c0,0-4,3.6-4,5.2s-3.1,6.2-3.1,6.2s-4.8,7.8,0,6.7c1.7-0.5,3.4-1.3,4.8-2.4v0.1c0,0.3,0,0.6,0,0.9
	c-0.1,8.5,0.8,20.4,7.1,20.4c9.7,0,34.7,11.5,34.7,11.5c5.1,3.9,12,2.6,12,2.6s-12.2,12.1-11.9,17.2s-6.9,13.3-6.9,13.3L594,575.6
	c0.1,3,0.7,6.1,1.6,9l-0.3,0.3c-8.6,7.9-9.3,23.4-9.3,23.4l-2,8l29.9,13.2c0,0,38.8,0.8,45.6-1s5.3-9.3-3.6-10.7
	c-8.9-1.5-11-5.4-14-7.1c-2-1.2-9.1-9-13.5-13.9c-0.1-0.1-0.1-0.1-0.2-0.2l1-5.6c2-1,4.9-10.7,4.9-10.7s0-3.9,2-5
	c2-1.1,6.1-12.8,6.1-12.8s8.9-14.8,8.4-16.7c-0.5-1.9,6.4-11.8,6.4-11.8s11.7-11.4,11.2-13.4c-0.5-2,9.4-12.4,9.4-12.4
	c3.6-2.7,6.5-6.1,8.7-10.1l2.8-0.5c12.9-2.1,34.4-5.9,36.8-7c3.3-1.5,2.6,5,1.3,10.6c-1.3,5.5-2.3,32-0.8,35.4s0.8,8.9,0.8,8.9
	l-2,29.7l1.3,6.3c0,0-4.4,3.6-2.6,5.7c1.8,2.1,0.2,11.2,0.2,11.2c0.2-0.1,0.3-0.1,0.5-0.2c-0.2,0.4-0.3,0.7-0.4,1.1
	c-2.6,7.2-1.1,19.2-1.1,19.2v9.4c0,0,45.6,0.8,55.6,0.8s23.9-4.9,24.7-8.8C804.3,615.7,791.9,612.4,787.3,612.2z M657.7,443.3
	l-3,0.2C655.7,443.4,656.7,443.3,657.7,443.3L657.7,443.3z M675.9,318.7c0.4-1.9,0.9-3.9,1.5-6L675.9,318.7z M681.6,447.8
	c-2.8,1.1-6,1.1-8.9,0l0,0c0,0,0.2-11.4,1.5-16.1c1.3-4.7,3.1-13.3,3.1-13.3s1.5-11.8,3-17.2c1.5-5.4,7.2-35.2,10.2-37.2
	c3-1.9,4.6,1.5,4.6,1.5s0.4,0,1.2-0.1c0.1,0.3,0.3,0.6,0.5,1c3.5,7.1,13.8,21.7,13.8,21.7c3.1,1.9,5.6,4.4,7.6,7.5
	c2.8,4.7,3.6,15.7,3.6,15.7s6.3,24.5,9.2,27.9c1.5,1.7,0.8,2.7-0.2,3.3c-2.1,1.2-3.9,2.8-5.2,4.8c-0.4,0.7-0.9,1.4-1.3,2.2
	c-1.1-0.3-2.1-0.5-3-0.8C713.1,446,686,445.9,681.6,447.8L681.6,447.8z"/>
<path class="st14" d="M722.1,618.2v9.3c0,0,44.6,0.8,54.4,0.8c9.8,0,23.3-4.8,24.1-8.7s-11.3-7.1-15.8-7.2s-4.7-1.9-10.5-5
	c-3.3-1.7-8.2-6.7-11.9-10.8c-2.9-3.1-5-5.6-5-5.6s-24-0.5-30.9,3.4c-1.6,0.9-2.7,2.6-3.4,4.8C720.6,606.4,722.1,618.2,722.1,618.2z
	"/>
<path class="st4" d="M723.1,599.2c5-1.7,34.5-2.4,39.3-2.5c-2.9-3.1-5-5.6-5-5.6s-24-0.5-30.9,3.4C725,595.3,723.9,597,723.1,599.2z
	"/>
<path class="st15" d="M593.8,450.3l2.6,1.6l1,0.6l3.8,2.3c20.2,12.2,75.4,45.2,78.4,45c0.8-0.1,3.2-0.4,6.4-1l2.8-0.5
	c12.6-2.1,33.6-5.9,36-7c3.2-1.4,2.6,5,1.3,10.5c-1.3,5.5-2.3,31.7-0.8,35.1c1.4,3.4,0.8,8.9,0.8,8.9l-1.9,29.5l1.3,6.3
	c0,0-4.3,3.5-2.6,5.6c1.8,2.1,0.2,11.1,0.2,11.1c5.2-1.9,40.1-2.6,40.1-2.6s-1.4-12.9-0.2-15.9c1.3-3.1,0.3-21.3,0.3-21.3
	s0.8-13.8-0.6-17.1c-1.4-3.2,0.5-23.8,0.5-23.8s1.3-12.2,1.6-37.2s-14.2-25.8-14.2-25.8s-1.9-0.2-4.8-0.4c-5.7-0.5-15.3-1.6-21.7-3
	c-1.3-0.3-2.6-0.6-3.9-1c-7.9-2.7-34.5-2.8-38.8-0.9c-2.8,1.1-5.9,1.1-8.7,0l0,0l-3.4-5.5l-32.3,2.8l-3.4,0.3l-31.8,2.7l-2.2,0.2
	L593.8,450.3z"/>
<path class="st4" d="M723.2,475c9.4,4.6,18.3-11.6,22.5-20.8c-5.7-0.5-15.3-1.6-21.7-3C719.8,458.3,714.2,470.6,723.2,475z"/>
<path class="st16" d="M695,365.5c0.2,1.1,0.6,2.2,1.1,3.2c3.4,7,13.5,21.5,13.5,21.5c3,1.9,5.5,4.4,7.4,7.4
	c2.7,4.7,3.5,15.6,3.5,15.6s6.1,24.3,9,27.7c1.4,1.7,0.8,2.7-0.2,3.3c-2.1,1.1-3.8,2.8-5.1,4.7c-4.2,6.8-11,20.3-1.5,24.9
	c12.9,6.3,25-26.6,25-26.6s-2.4-23.3-3.1-27.4c-0.6-4-4.5-20.6-4.5-20.6s-2.7-7.1-4.3-12.1c-1.6-5-6.4-10.8-6.4-10.8
	s-8.7-17.4-11.1-20c-1.1-1.2-2.7-2.7-4-4c-1.6-1.5-2.9-2.6-2.9-2.6S694.9,361.6,695,365.5z"/>
<path class="st14" d="M585.9,616.3l29.3,13c0,0,38,0.8,44.6-1s5.2-9.2-3.5-10.6c-8.7-1.4-10.8-5.3-13.7-7.1
	c-2-1.2-8.9-8.9-13.2-13.8c-2.1-2.4-3.5-4-3.5-4s-5.6-15-21.2-11.6c-2.9,0.6-5.5,2-7.6,4c-8.4,7.8-9.1,23.2-9.1,23.2L585.9,616.3z"
	/>
<path class="st4" d="M597.4,452.5l3.8,2.3c20.2,12.2,75.4,45.2,78.4,45c0.8-0.1,3.2-0.4,6.4-1l2.8-0.5l0.1-0.2
	c1.6-2.8,2.9-5.9,3.7-9c3.4-12.9-13.3-22.7-13.3-22.7l-3.5-2.8c-4-6.8-33-13.2-33-13.2l-3.7-2.5l-2-1.3l-0.5-0.4l-4.5-3l-22.7,1.6
	l-6.7,4.3l-0.7,0.5l-2.5,1.6L597.4,452.5z"/>
<path class="st4" d="M597,585.2c6.2,21.3,31.9,14.4,31.9,14.4l0.5-2.7c-2.1-2.4-3.5-4-3.5-4s-5.6-15-21.2-11.6
	C601.7,581.8,599.1,583.2,597,585.2z"/>
<path class="st15" d="M590.2,488.4c9.5,0,34,11.4,34,11.4c5,3.9,11.8,2.6,11.8,2.6s-11.9,12.1-11.6,17.1s-6.8,13.2-6.8,13.2
	L595.7,576c1.6,30.7,33.2,22.2,33.2,22.2l1.3-7.2c1.9-1,4.8-10.6,4.8-10.6s0-3.9,1.9-5c1.9-1.1,6-12.7,6-12.7s8.7-14.7,8.2-16.6
	c-0.5-1.9,6.3-11.7,6.3-11.7s11.4-11.3,10.9-13.3c-0.5-2,9.2-12.3,9.2-12.3c3.5-2.7,6.4-6.1,8.5-10c1.6-2.8,2.9-5.9,3.7-9
	c2.7-10.4-7.6-18.8-11.7-21.6c-1-0.7-1.6-1.1-1.6-1.1l-3.5-2.8c-1.8-3.1-8.9-6.1-15.9-8.5c-5.1-1.7-10.3-3.1-13.5-3.9
	c-2.2-0.5-3.6-0.9-3.6-0.9l-3.7-2.5l-1.3-0.9l-1.2-0.8l-4.6-3.1l-10.1,0.7l-12.6,0.9l-6.7,4.4l-3.2,2.1l-12.6,8c0,0-0.3,3.1-0.4,7.2
	c0,0.3,0,0.6,0,1C583.2,476.6,584.1,488.4,590.2,488.4z"/>
<path class="st16" d="M638.7,308.2l3.4,12.1c0,0,6,20.8,6.6,22.2c0.6,1.4,16.3,16.1,16.9,16.4c0.6,0.3,9.1,5.1,9.1,5.1
	s0.7-26.6,0-34.3c-0.1-1.7,0.1-3.4,0.4-5.1c1-6.1,3.6-14.9,5.8-21.8c1.8-5.7,3.3-10,3.3-10s-37.7-1.6-36.4,2.1
	c0.5,1.4,0.3,3.7-0.1,6.1c-0.8,3.9-2.4,7.7-3.4,7.4c-1-0.2-2-0.3-3-0.3C640,308.1,638.7,308.2,638.7,308.2z"/>
<path class="st4" d="M647.7,301c9.5,7.9,23,8.6,33.2,1.8c1.8-5.7,3.3-10,3.3-10s-37.7-1.6-36.4,2.1
	C648.4,296.4,648.2,298.7,647.7,301z"/>
<path class="st16" d="M693.4,278.7c0,3-0.5,5.9-1.4,8.7c-0.2,0.7-0.5,1.4-0.8,2.1c-6,14.2-22.3,20.8-36.5,14.8
	c-7.1-3-12.6-8.7-15.3-15.9c-1.1-3-1.7-6.1-1.7-9.2c0-0.2,0-0.3,0-0.5c-0.3-15.4,12-28.1,27.4-28.3c15.4-0.3,28.1,12,28.3,27.4
	C693.5,278.1,693.5,278.4,693.4,278.7L693.4,278.7z"/>
<path class="st4" d="M638.7,308.2l3.4,12.1c0,0,6,20.8,6.6,22.2c0.6,1.4,16.3,16.1,16.9,16.4c0.6,0.3,9.1,5.1,9.1,5.1
	s0.7-26.6,0-34.3c-0.1-1.7,0.1-3.4,0.4-5.1l-2.2,8.9l0.2,17.9l1.3,1l-2.9,4.3v-3.2c0,0-10.3-10-11.9-14.2
	c-1.6-4.2-7.4-11.8-7.4-11.8s-6.6-11.1-6.8-13c-0.1-1.5-2.9-5-4.1-6.4C640,308.1,638.7,308.2,638.7,308.2z"/>
<path class="st4" d="M695,365.5c0.2,1.1,0.6,2.2,1.1,3.2c3.5-0.4,15.5-2.6,18.2-16.3c-1.6-1.5-2.9-2.6-2.9-2.6
	S694.9,361.6,695,365.5z"/>
<path class="st4" d="M583.3,468.2c3.2-2.3,6.3-5.4,8.2-6.3c2.7-1.3,6.9-5.5,6.9-5.5s1.1-0.7,2.7-1.7c3-1.8,7.9-4.3,11.6-4.6
	c3.4-0.3,14.5-1,23.3-1.5l11.5-0.7c0,0,10.5-3.7,15-1.3c3.2,1.6,6.6,2.9,10.1,3.7c0,0,0-0.4,0-1l0,0l-3.4-5.5l-35.7,3l-4.6-3.1
	l-22.7,1.6l-6.7,4.4l-5.8,0.5l2.6,1.6l-12.6,8C583.8,460,583.4,463.6,583.3,468.2z"/>
<path class="st14" d="M578.7,469.6c1.7-0.5,3.3-1.3,4.7-2.4l0,0c3.2-2.3,6.3-5.4,8.2-6.3c2.7-1.3,6.9-5.5,6.9-5.5s8.5-5.8,14.3-6.3
	c1.6-0.1,4.9-0.4,8.9-0.6s8.9-0.6,13.1-0.8l6.8-0.4l5.9-0.4c0,0,10.5-3.7,15-1.3c3.2,1.6,6.6,2.9,10.1,3.7c0,0,0.2-11.3,1.4-15.9
	c1.3-4.7,3.1-13.2,3.1-13.2s1.4-11.8,2.9-17.1c1.4-5.3,7.1-34.9,10-36.9c2.9-1.9,4.5,1.4,4.5,1.4s19.3-0.3,19.6-21.6
	c0,0-9-9-9.7-11.3s-9.2-10.6-9.2-10.6s-4.8-9-10.3-9.2c-2.6-0.1-5.2-0.1-7.8,0.2l-4.6,18.9l0.2,17.9l1.3,1l-2.9,4.3v-3.2
	c0,0-10.3-10-11.9-14.2c-1.6-4.2-7.4-11.8-7.4-11.8s-6.6-11.1-6.8-13s-4.7-7.1-4.7-7.1c-0.9-0.1-1.8-0.1-2.7,0c-0.4,0-0.8,0-1.2-0.2
	c-2.6-0.8-5.4-1-8-0.5c-5.6,1.2-14,3.3-16.3,5.8c-3.5,3.9-8.7,7.6-14.5,23.7l31.2,11.3l-2.7,5.1l-24.8,47.2c0,0-0.8,1.3-1.9,3.1l0,0
	c-1.4,2.3-3.4,5.2-4.7,6.9c-2.3,2.9-1.6,12.1-1.6,12.1s-0.5,4.3-2.1,6c-1.6,1.6-1.3,7.6-1.3,7.6l-4.2,15.6c0,0-3.9,3.5-3.9,5.2
	c0,1.6-3.1,6.1-3.1,6.1S574,470.7,578.7,469.6z"/>
<path class="st4" d="M743.5,481.2c0,0-10.1,3.4-12.9,8.2S743.5,481.2,743.5,481.2z"/>
<path class="st4" d="M738.3,470.6c-0.3,0.5-13.9,14.1-13,17.4S738.3,470.6,738.3,470.6z"/>
<path class="st4" d="M663.8,480.2c0,0-15.1,7.1-16.4,10.3C646.1,493.7,663.8,480.2,663.8,480.2z"/>
<path class="st4" d="M662.8,489.4c0,0-13.7,5.8-15.5,7.2C645.5,498.1,662.8,489.4,662.8,489.4z"/>
<path class="st4" d="M656.6,501.8c0,0-6,4.5-9.4,1C643.8,499.2,656.6,501.8,656.6,501.8z"/>
<path class="st4" d="M679.3,384.3c-0.3,0.5-20.4,36.7-25.8,39.4S679.3,384.3,679.3,384.3z"/>
<path class="st4" d="M678.3,398c0,0.8-19.6,42.8-22.9,43.3C652.2,441.8,678.3,398,678.3,398z"/>
<path class="st4" d="M603.6,425c0,0-9.5,20.3-13.2,21.4C586.7,447.6,603.6,425,603.6,425z"/>
<path class="st4" d="M602,416c0,0-3.3,7.1-5.3,7.1C594.8,423.1,602,416,602,416z"/>
<path class="st4" d="M693.4,278.7c0,3-0.5,5.9-1.4,8.7c-0.2,0.7-0.5,1.4-0.8,2.1c-1.4-0.2-2.8-0.8-3.9-1.7c-1.2-0.8-2.2-1.9-2.9-3.1
	c-0.5-1.3-1-2.7-1.4-4.1c-1.3-3.2-4.2-5.4-7.6-5.8c0.9,1.6-0.5,3.7-2.4,4c-1.8,0.3-3.6-0.8-4.8-2.1c-1.3-1.3-2.1-3-3.4-4.3
	c-1.2-1.3-3-2.4-4.8-2.1c-1.6,0.2-2.8,1.5-4.2,2.4c-1.3,0.9-3.2,1.5-4.5,0.5c-0.7-0.5-1.1-1.5-1.8-2c-1.8-1.5-4.5,0-5.9,2
	c-2,3-3.2,4.8-5.9,6.1c0-0.2,0-0.3,0-0.5c-0.3-15.4,12-28.1,27.4-28.3c15.4-0.3,28.1,12,28.3,27.4
	C693.5,278.1,693.5,278.4,693.4,278.7L693.4,278.7z"/>
<path class="st14" d="M643.6,272.3c1.3-1.9,4.1-3.5,5.9-2c0.7,0.6,1,1.5,1.8,2c1.3,1,3.2,0.4,4.5-0.5c1.3-0.9,2.6-2.1,4.2-2.4
	c1.8-0.3,3.6,0.8,4.8,2.1s2.1,3,3.4,4.3s3,2.4,4.8,2.1c1.8-0.3,3.3-2.4,2.4-4c3.4,0.4,6.3,2.6,7.6,5.8c0.4,1.4,0.9,2.7,1.4,4.1
	c0.7,1.2,1.7,2.3,2.9,3.1c1.5,1.1,3.3,2,5.1,1.7c1.8-0.3,3.3-2.4,2.5-4c0.6,0.9,1.8-0.3,2-1.4c0.4-2.3,0.3-4.6-0.4-6.8
	c-0.9-3-2.8-6-2-9c0.6-2.4,2.6-4.1,3.9-6.3c2.2-3.8,1.6-8.9-1.1-12.3c-2.8-3.4-7.1-5.3-11.6-5.1c-1.2,0.1-2.4,0.2-3.6,0.1
	c-2-0.3-3.7-1.6-5.3-2.9l-13.5-10.5c-1.5-1.3-3.2-2.4-5.1-3.1c-1.9-0.6-4.2-0.4-5.6,1c-2.5,2.5-0.9,6.9-1.9,10.3c-0.9,3-3.7,5-6.6,6
	s-6.1,1.2-9.1,1.9c-0.9,0.1-1.7,0.5-2.4,1.1c-0.8,1-1.2,2.2-1.1,3.4c0,3,0.7,6,2.1,8.7c1.6,3,4,6.1,3.2,9.4c-0.5,1.7-1.8,3.1-3,4.4
	c-2.5,2.9-3.4,7.2,1.4,5.7C639.7,278,641,276.1,643.6,272.3z"/>
<g class="st10">
	<path d="M696.9,280.1c-0.2,1-1.4,2.3-2,1.4c0.8,1.6-0.7,3.7-2.5,4c-1.8,0.3-3.6-0.6-5.1-1.7c-1.2-0.8-2.2-1.9-2.9-3.1
		c-0.7-1.3-0.9-2.7-1.4-4.1c-1.3-3.2-4.2-5.4-7.6-5.8c0.9,1.6-0.5,3.8-2.4,4c-1.8,0.3-3.6-0.8-4.8-2.1c-1.3-1.3-2.1-3-3.4-4.3
		c-1.2-1.4-3-2.4-4.8-2.1c-1.6,0.2-2.8,1.5-4.2,2.4c-1.3,0.9-3.2,1.5-4.5,0.6c-0.7-0.5-1.1-1.5-1.8-2c-1.8-1.5-4.6,0-5.9,2
		c-2.6,3.8-3.9,5.7-8.5,7.2c-1.5,0.5-2.5,0.4-3-0.1c-1,2.3-0.5,4.4,3,3.3c4.6-1.5,5.9-3.3,8.5-7.2c1.3-1.9,4.1-3.5,5.9-2
		c0.7,0.6,1,1.5,1.8,2c1.3,1,3.2,0.4,4.5-0.5c1.3-0.9,2.6-2.1,4.2-2.4c1.8-0.3,3.6,0.8,4.8,2.1c1.3,1.3,2.1,3,3.4,4.3
		c1.2,1.3,3,2.4,4.8,2.1c1.8-0.3,3.3-2.4,2.4-4c3.4,0.4,6.3,2.6,7.6,5.8c0.4,1.4,0.9,2.7,1.4,4.1c0.7,1.2,1.7,2.3,2.9,3.1
		c1.5,1.1,3.3,2,5.1,1.7c1.8-0.3,3.3-2.4,2.5-4c0.6,0.9,1.8-0.3,2-1.4c0.2-1.4,0.3-2.8,0.1-4.2C697,279.4,697,279.8,696.9,280.1z"/>
	<path d="M636.6,266.3c0,0,0-0.1,0-0.1c0.9-3.3-1.6-6.4-3.2-9.4c-1.1-2.1-1.8-4.4-2-6.8c-0.1,0.4-0.1,0.8-0.1,1.3c0,3,0.7,6,2.1,8.7
		C634.6,262,636.1,264.1,636.6,266.3z"/>
	<path d="M698.4,258.1c-1.2,2.1-3.3,3.9-3.9,6.3c-0.2,1-0.2,2.1,0,3.1c0.6-2.4,2.6-4.1,3.8-6.2c1.2-2.1,1.6-4.5,1.2-6.8
		C699.4,255.7,699,257,698.4,258.1z"/>
</g>
<path class="st4" d="M599.4,403.7L599.4,403.7c0.2,0.9,0.4,1.8,0.5,2.7c0,0,12.7,29.8,14.3,31.5c0.5,0.5,2.4,3.2,4.7,6.7l2.7,4
	c4.8,7.2,10.3,15.4,10.3,15.4l11.9,10.4c0,0,25.9,2.1,34.1-6.3c-1-0.7-1.6-1.1-1.6-1.1l-3.5-2.8c-1.8-3.1-8.9-6.1-15.9-8.5
	c-6.5,0-11.9,0.6-11.9,0.6l-1.7-4.5l-1.8-4.7l-9-23.7c0,0-5.8-29.9-7.7-31.4c-1.9-1.5-1.4-6-1.4-6s3.5-12.7,2.2-14.5
	c-1.3-1.8,2.1-14.8,2.1-14.8c-0.3-1.3-0.9-2.5-1.5-3.6l-24.8,47.2C601.4,400.6,600.5,401.9,599.4,403.7z"/>
<path class="st16" d="M628.1,356c0,0-3.4,13-2.1,14.8c1.3,1.8-2.3,14.5-2.3,14.5s-0.5,4.5,1.4,6c1.9,1.4,7.7,31.4,7.7,31.4
	l12.5,32.8c0,0,39-3.9,35,8.4c-4,12.2-36.2,9.7-36.2,9.7L632.3,463c0,0-16.1-24.3-17.7-26.1c-1.6-1.8-14.3-31.5-14.3-31.5
	s-0.6-6-3.4-9c-2.7-3.1-0.6-8.2-0.6-8.2s-3.4-38.9,0.2-43.6S624.4,342,628.1,356z"/>
<path class="st4" d="M608.1,331.5l-10.1,6.1c0,0-2.9,9.8-5.2,11.1c0,0,20.3-11.3,35.6,14.6c0,0-0.5-3.4,1.6-5
	c2.1-1.6,1.6-8.5,1.6-8.5c0.6-1.1,1-2.2,1.4-3.4C634.5,342.9,627,322.6,608.1,331.5z"/>
<path class="st14" d="M607.8,330.9l-10.1,6.1c0,0-2.9,9.8-5.2,11.1c0,0,20.3-11.3,35.6,14.6c0,0-0.5-3.4,1.6-5
	c2.1-1.6,1.6-8.5,1.6-8.5c0.6-1.1,1-2.2,1.4-3.4C634.2,342.3,626.6,322,607.8,330.9z"/>
<ellipse class="st12" cx="517.4" cy="580.7" rx="30.2" ry="32.1"/>
<ellipse class="st4" cx="517.4" cy="580.7" rx="30.2" ry="32.1"/>
<ellipse class="st12" cx="522.6" cy="581.4" rx="30.2" ry="31.4"/>
<ellipse class="st2" cx="84.5" cy="592" rx="37.3" ry="6.3"/>
<path class="st2" d="M100,581.7c1.6-1.5,3.1-3.2,3.6-5.4c0.5-2.2-0.5-4.7-2.5-5.5c-2.3-0.9-4.7,0.7-6.6,2.3c-1.9,1.6-4,3.4-6.4,3.1
	c2.5-2.3,3.7-5.8,3-9.1c-0.1-0.7-0.4-1.3-0.8-1.9c-1.3-1.4-3.6-0.8-5.1,0.3c-4.8,3.4-6.2,10-6.2,15.9c-0.5-2.1-0.1-4.3-0.1-6.5
	c0-2.2-0.6-4.6-2.4-5.8c-1.1-0.6-2.4-0.9-3.7-0.9c-2.2-0.1-4.6,0.1-6.1,1.7c-1.8,2-1.4,5.3,0.2,7.5c1.6,2.2,4,3.5,6.3,5
	c1.8,1.1,3.3,2.5,4.5,4.3c0.1,0.3,0.2,0.5,0.3,0.8h13.6C94.7,586,97.5,584,100,581.7z"/>
<path class="st12" d="M353.5,241.1l30.5-15.3l11.3,10.3l2.7,7.4l2.8,12.4l-2.5,5.4l-19.5,3.6c0,0-10.4-0.6-12,0.2
	c-1.6,0.8-8.2,2.2-8.2,2.2l-5.1-12.6V241.1z"/>
</svg>
