<?xml version="1.0" encoding="utf-8"?>
<!-- Generator: Adobe Illustrator 22.1.0, SVG Export Plug-In . SVG Version: 6.00 Build 0)  -->
<svg version="1.1" id="_x39_cedafd9-494f-4d3e-b6f0-d29f99df71e5"
	 xmlns="http://www.w3.org/2000/svg" xmlns:xlink="http://www.w3.org/1999/xlink" x="0px" y="0px" viewBox="0 0 932.4 495"
	 style="enable-background:new 0 0 932.4 495;" xml:space="preserve">
<style type="text/css">
	.st0{opacity:0.5;}
	.st1{fill:url(#SVGID_1_);}
	.st2{fill:#F55F44;}
	.st3{fill:#4D8AF0;}
	.st4{fill:#3AD29F;}
	.st5{fill:#FFBF00;}
	.st6{opacity:0.1;}
	.st7{fill:url(#SVGID_2_);}
	.st8{fill:#0075DD;stroke:#0075DD;stroke-miterlimit:10;}
	.st9{fill:url(#SVGID_3_);}
	.st10{fill:#FFFFFF;}
	.st11{fill:url(#SVGID_4_);}
	.st12{fill:url(#SVGID_5_);}
	.st13{fill:#F5F5F5;}
	.st14{fill:#E0E0E0;}
	.st15{opacity:0.1;enable-background:new    ;}
	.st16{opacity:5.000000e-02;enable-background:new    ;}
	.st17{fill:url(#SVGID_6_);}
	.st18{fill:url(#SVGID_7_);}
	.st19{fill:url(#SVGID_8_);}
	.st20{fill:url(#SVGID_9_);}
	.st21{fill:url(#SVGID_10_);}
	.st22{fill:#646F79;}
	.st23{fill:url(#SVGID_11_);}
	.st24{fill:url(#SVGID_12_);}
	.st25{fill:url(#SVGID_13_);}
</style>
<title>Container ship</title>
<g class="st0">
	
		<linearGradient id="SVGID_1_" gradientUnits="userSpaceOnUse" x1="404.685" y1="280.7" x2="404.685" y2="415.68" gradientTransform="matrix(1 0 0 -1 0 648)">
		<stop  offset="0" style="stop-color:#808080;stop-opacity:0.25"/>
		<stop  offset="0.54" style="stop-color:#808080;stop-opacity:0.12"/>
		<stop  offset="1" style="stop-color:#808080;stop-opacity:0.1"/>
	</linearGradient>
	<polygon class="st1" points="607,232.7 607,232.3 592.4,232.3 592.4,232.7 578.6,232.7 578.6,232.3 564,232.3 564,232.7 
		550.2,232.7 550.2,232.3 535.6,232.3 535.6,232.7 515.8,232.7 495.9,232.7 495.9,232.3 481.3,232.3 481.3,232.7 467.5,232.7 
		467.5,232.3 452.9,232.3 452.9,232.7 439.1,232.7 439.1,232.3 424.5,232.3 424.5,232.7 404.7,232.7 384.8,232.7 384.8,232.3 
		370.2,232.3 370.2,232.7 356.5,232.7 356.5,232.3 341.9,232.3 341.9,232.7 328.1,232.7 328.1,232.3 313.5,232.3 313.5,232.7 
		293.6,232.7 293.6,300 292.8,300 273.8,300 273.8,299.6 259.2,299.6 259.2,300 245.4,300 245.4,299.6 230.8,299.6 230.8,300 
		217,300 217,299.6 202.4,299.6 202.4,300 182.6,300 182.6,367.3 292.8,367.3 293.6,367.3 403.9,367.3 403.9,300 404.7,300 
		404.7,367.3 515.8,367.3 626.8,367.3 626.8,300 626.8,232.7 	"/>
</g>
<rect x="295.4" y="233.8" class="st2" width="109.3" height="66.2"/>
<rect x="404.7" y="233.8" class="st3" width="109.3" height="66.2"/>
<rect x="514" y="233.8" class="st4" width="109.3" height="66.2"/>
<rect x="294.6" y="300" class="st3" width="109.3" height="66.2"/>
<rect x="186.1" y="300" class="st2" width="109.3" height="66.2"/>
<rect x="404.7" y="300" class="st4" width="109.3" height="66.2"/>
<rect x="514" y="300" class="st5" width="109.3" height="66.2"/>
<g class="st6">
	<rect x="315" y="233.4" width="14.4" height="66.2"/>
	<rect x="342.9" y="233.4" width="14.4" height="66.2"/>
	<rect x="370.8" y="233.4" width="14.4" height="66.2"/>
</g>
<g class="st6">
	<rect x="424.2" y="233.4" width="14.4" height="66.2"/>
	<rect x="452.1" y="233.4" width="14.4" height="66.2"/>
	<rect x="480.1" y="233.4" width="14.4" height="66.2"/>
</g>
<g class="st6">
	<rect x="533.5" y="233.4" width="14.4" height="66.2"/>
	<rect x="561.4" y="233.4" width="14.4" height="66.2"/>
	<rect x="589.3" y="233.4" width="14.4" height="66.2"/>
</g>
<g class="st6">
	<rect x="315" y="299.6" width="14.4" height="66.2"/>
	<rect x="342.9" y="299.6" width="14.4" height="66.2"/>
	<rect x="370.8" y="299.6" width="14.4" height="66.2"/>
</g>
<g class="st6">
	<rect x="205.7" y="299.6" width="14.4" height="66.2"/>
	<rect x="233.6" y="299.6" width="14.4" height="66.2"/>
	<rect x="261.5" y="299.6" width="14.4" height="66.2"/>
</g>
<g class="st6">
	<rect x="424.2" y="299.6" width="14.4" height="66.2"/>
	<rect x="452.1" y="299.6" width="14.4" height="66.2"/>
	<rect x="480.1" y="299.6" width="14.4" height="66.2"/>
</g>
<g class="st6">
	<rect x="533.5" y="299.6" width="14.4" height="66.2"/>
	<rect x="561.4" y="299.6" width="14.4" height="66.2"/>
	<rect x="589.3" y="299.6" width="14.4" height="66.2"/>
</g>
<g class="st0">
	
		<linearGradient id="SVGID_2_" gradientUnits="userSpaceOnUse" x1="593.9756" y1="21.35" x2="593.9756" y2="196" gradientTransform="matrix(1 0 0 -1 -133.81 521.11)">
		<stop  offset="0" style="stop-color:#808080;stop-opacity:0.25"/>
		<stop  offset="0.54" style="stop-color:#808080;stop-opacity:0.12"/>
		<stop  offset="1" style="stop-color:#808080;stop-opacity:0.1"/>
	</linearGradient>
	<path class="st7" d="M298.9,325.1H68.6c0,0-20.4,91.2,84.1,154v20.7h663v-17.2c0,0,58.8-15.5,29.4-123.9l-484.2,2.6L298.9,325.1z"
		/>
</g>
<path class="st8" d="M302.6,332.7H77.7c0,0-19.9,84.5,82.2,142.8v19.1h647.6v-16c0,0,57.4-14.3,28.7-114.8l-473,2.4L302.6,332.7z"/>
<g class="st0">
	
		<linearGradient id="SVGID_3_" gradientUnits="userSpaceOnUse" x1="738.075" y1="233.28" x2="738.075" y2="253.75" gradientTransform="matrix(1 0 0 -1 0 648)">
		<stop  offset="0" style="stop-color:#808080;stop-opacity:0.25"/>
		<stop  offset="0.54" style="stop-color:#808080;stop-opacity:0.12"/>
		<stop  offset="1" style="stop-color:#808080;stop-opacity:0.1"/>
	</linearGradient>
	<path class="st9" d="M717.2,394.2H759c5.4,0,9.8,4.4,9.8,9.8v0.9c0,5.4-4.4,9.8-9.8,9.8h-41.8c-5.4,0-9.8-4.4-9.8-9.8V404
		C707.4,398.6,711.7,394.2,717.2,394.2z"/>
</g>
<path class="st10" d="M718.5,394.9h39.1c5.1,0,9.2,4.1,9.2,9.1v0.8c0,5.1-4.1,9.1-9.2,9.1h-39.1c-5.1,0-9.2-4.1-9.2-9.1v-0.8
	C709.4,399,713.5,394.9,718.5,394.9z"/>
<g class="st0">
	
		<linearGradient id="SVGID_4_" gradientUnits="userSpaceOnUse" x1="786.725" y1="232.75" x2="786.725" y2="254.28" gradientTransform="matrix(1 0 0 -1 0 648)">
		<stop  offset="0" style="stop-color:#808080;stop-opacity:0.25"/>
		<stop  offset="0.54" style="stop-color:#808080;stop-opacity:0.12"/>
		<stop  offset="1" style="stop-color:#808080;stop-opacity:0.1"/>
	</linearGradient>
	<path class="st11" d="M786.2,393.7h1c5.7,0,10.3,4.6,10.3,10.3v0.9c0,5.7-4.6,10.3-10.3,10.3h-1c-5.7,0-10.3-4.6-10.3-10.3V404
		C776,398.3,780.6,393.7,786.2,393.7z"/>
</g>
<path class="st10" d="M786.3,394.9h0.8c5.1,0,9.2,4.1,9.2,9.1v0.8c0,5.1-4.1,9.1-9.2,9.1h-0.8c-5.1,0-9.2-4.1-9.2-9.1v-0.8
	C777.2,399,781.3,394.9,786.3,394.9z"/>
<g class="st0">
	
		<linearGradient id="SVGID_5_" gradientUnits="userSpaceOnUse" x1="746.05" y1="280.6" x2="746.05" y2="570.92" gradientTransform="matrix(1 0 0 -1 0 648)">
		<stop  offset="0" style="stop-color:#808080;stop-opacity:0.25"/>
		<stop  offset="0.54" style="stop-color:#808080;stop-opacity:0.12"/>
		<stop  offset="1" style="stop-color:#808080;stop-opacity:0.1"/>
	</linearGradient>
	<polygon class="st12" points="828.5,280.7 828.5,261.1 776.9,261.1 776.9,162.1 704.2,162.1 704.2,101.6 716,101.6 716,88.5 
		704.2,88.5 704.2,77.1 690.7,77.1 690.7,88.5 679.7,88.5 679.7,101.6 690.7,101.6 690.7,162.1 668.7,162.1 668.7,198.1 
		668.7,227.6 668.7,261.1 668.7,280.7 647.5,280.7 647.5,295.4 668.7,295.4 668.7,298.3 668.7,367.4 828.5,367.4 828.5,298.3 
		828.5,295.4 844.5,295.4 844.5,280.7 	"/>
</g>
<rect x="671.9" y="260.1" class="st13" width="150.7" height="103.7"/>
<rect x="671.9" y="163.6" class="st13" width="102.1" height="96.5"/>
<rect x="719.7" y="205.9" class="st8" width="35.1" height="54.2"/>
<rect x="671.9" y="198.7" class="st10" width="20.7" height="28.7"/>
<rect x="692.6" y="80.7" class="st14" width="12.8" height="82.9"/>
<rect x="682.7" y="91.8" class="st14" width="34.3" height="12.8"/>
<rect x="651.9" y="279.3" class="st14" width="185.8" height="14.4"/>
<circle class="st10" cx="705.4" cy="318.4" r="7.2"/>
<circle class="st10" cx="730.9" cy="318.4" r="7.2"/>
<circle class="st10" cx="756.4" cy="318.4" r="7.2"/>
<circle class="st10" cx="781.9" cy="318.4" r="7.2"/>
<rect x="159.4" y="475.9" class="st15" width="647.6" height="19.1"/>
<path class="st15" d="M77.7,336.3h224.9l60.6,33.5l473-2.4c5.5,19.1,7.8,35,8,48.4c0.2-14.1-2-31.4-8-52.4l-473,2.4l-60.6-33.5H77.7
	c-1.3,6.4-1.8,13-1.6,19.6C76.1,346.6,76.7,341.4,77.7,336.3z"/>
<rect x="671.9" y="293.6" class="st16" width="150.7" height="2.8"/>
<g class="st0">
	
		<linearGradient id="SVGID_6_" gradientUnits="userSpaceOnUse" x1="116.36" y1="276.61" x2="116.36" y2="300.53" gradientTransform="matrix(1 0 0 -1 0 648)">
		<stop  offset="0" style="stop-color:#808080;stop-opacity:0.25"/>
		<stop  offset="0.54" style="stop-color:#808080;stop-opacity:0.12"/>
		<stop  offset="1" style="stop-color:#808080;stop-opacity:0.1"/>
	</linearGradient>
	<circle class="st17" cx="116.4" cy="359.4" r="12"/>
</g>
<g class="st0">
	
		<linearGradient id="SVGID_7_" gradientUnits="userSpaceOnUse" x1="169" y1="276.61" x2="169" y2="300.53" gradientTransform="matrix(1 0 0 -1 0 648)">
		<stop  offset="0" style="stop-color:#808080;stop-opacity:0.25"/>
		<stop  offset="0.54" style="stop-color:#808080;stop-opacity:0.12"/>
		<stop  offset="1" style="stop-color:#808080;stop-opacity:0.1"/>
	</linearGradient>
	<circle class="st18" cx="169" cy="359.4" r="12"/>
</g>
<g class="st0">
	
		<linearGradient id="SVGID_8_" gradientUnits="userSpaceOnUse" x1="221.64" y1="276.61" x2="221.64" y2="300.53" gradientTransform="matrix(1 0 0 -1 0 648)">
		<stop  offset="0" style="stop-color:#808080;stop-opacity:0.25"/>
		<stop  offset="0.54" style="stop-color:#808080;stop-opacity:0.12"/>
		<stop  offset="1" style="stop-color:#808080;stop-opacity:0.1"/>
	</linearGradient>
	<circle class="st19" cx="221.6" cy="359.4" r="12"/>
</g>
<g class="st0">
	
		<linearGradient id="SVGID_9_" gradientUnits="userSpaceOnUse" x1="274.28" y1="276.61" x2="274.28" y2="300.53" gradientTransform="matrix(1 0 0 -1 0 648)">
		<stop  offset="0" style="stop-color:#808080;stop-opacity:0.25"/>
		<stop  offset="0.54" style="stop-color:#808080;stop-opacity:0.12"/>
		<stop  offset="1" style="stop-color:#808080;stop-opacity:0.1"/>
	</linearGradient>
	<circle class="st20" cx="274.3" cy="359.4" r="12"/>
</g>
<circle class="st10" cx="116.4" cy="359.4" r="9.6"/>
<circle class="st10" cx="169" cy="359.4" r="9.6"/>
<circle class="st10" cx="221.6" cy="359.4" r="9.6"/>
<circle class="st10" cx="274.3" cy="359.4" r="9.6"/>
<path class="st3" d="M95.6,496.7c7.4-20.1,30.8-30.5,52.2-29.7s41.3,10.5,60.5,20s39,19.3,60.4,20.3c47.5,2.3,87.5-38.1,134.9-42.7
	c56.3-5.5,106.2,40.4,162.8,42.3c9.9,0.3,20.1-0.8,29.2-4.7c8-3.4,14.9-8.8,22.4-13c38-21.6,85.5-13.4,127.5-1.5
	s85.6,27.3,128.4,18.1"/>
<g class="st0">
	
		<linearGradient id="SVGID_10_" gradientUnits="userSpaceOnUse" x1="398.2" y1="407.19" x2="398.2" y2="454.51" gradientTransform="matrix(1 0 0 -1 -133.81 521.11)">
		<stop  offset="0" style="stop-color:#808080;stop-opacity:0.25"/>
		<stop  offset="0.54" style="stop-color:#808080;stop-opacity:0.12"/>
		<stop  offset="1" style="stop-color:#808080;stop-opacity:0.1"/>
	</linearGradient>
	<path class="st21" d="M263,113.9l-6.9-1.2c0.2-1.7,0.5-3.4,0.8-5.1c1.2-14.8-9.1-30.3-23.5-34.3l1.8-6.8
		c13.1,3.6,23.2,14.6,27.1,27.4c6.9-11.7,18.3-20.1,31.6-22.9l1.4,6.9c-15.1,3-27.9,15.9-31.5,30.9
		C263.7,110.5,263.4,112.2,263,113.9z"/>
</g>
<path class="st22" d="M263.2,110.5l-5.9-1c0.2-1.5,0.4-2.9,0.7-4.3c1-12.6-7.8-25.9-20.1-29.3l1.6-5.8c11.2,3.1,19.9,12.4,23.2,23.4
	c5.9-10.1,15.7-17.2,27-19.7l1.2,5.9c-12.9,2.6-23.9,13.6-27,26.4C263.8,107.6,263.5,109,263.2,110.5z"/>
<g class="st0">
	
		<linearGradient id="SVGID_11_" gradientUnits="userSpaceOnUse" x1="545.205" y1="470.59" x2="545.205" y2="501.12" gradientTransform="matrix(1 0 0 -1 -133.81 521.11)">
		<stop  offset="0" style="stop-color:#808080;stop-opacity:0.25"/>
		<stop  offset="0.54" style="stop-color:#808080;stop-opacity:0.12"/>
		<stop  offset="1" style="stop-color:#808080;stop-opacity:0.1"/>
	</linearGradient>
	<path class="st23" d="M410.5,50.5l-4.5-0.8c0.1-1.1,0.3-2.2,0.5-3.3c0.8-9.5-5.9-19.6-15.2-22.1l1.2-4.4c8.5,2.3,15,9.4,17.5,17.6
		c4.4-7.6,11.8-12.9,20.4-14.8l0.9,4.4c-9.7,2-18,10.2-20.3,19.9C410.9,48.3,410.7,49.4,410.5,50.5z"/>
</g>
<g class="st0">
	
		<linearGradient id="SVGID_12_" gradientUnits="userSpaceOnUse" x1="816.205" y1="490.59" x2="816.205" y2="521.12" gradientTransform="matrix(1 0 0 -1 -133.81 521.11)">
		<stop  offset="0" style="stop-color:#808080;stop-opacity:0.25"/>
		<stop  offset="0.54" style="stop-color:#808080;stop-opacity:0.12"/>
		<stop  offset="1" style="stop-color:#808080;stop-opacity:0.1"/>
	</linearGradient>
	<path class="st24" d="M681.5,30.5l-4.5-0.8c0.1-1.1,0.3-2.2,0.5-3.3c0.8-9.5-5.9-19.6-15.2-22.1l1.2-4.4c8.5,2.3,15,9.4,17.5,17.7
		c4.4-7.6,11.8-12.9,20.4-14.8l0.9,4.4c-9.7,2-18,10.2-20.3,19.9C681.9,28.3,681.7,29.4,681.5,30.5z"/>
</g>
<path class="st22" d="M410.8,45.2l-2.9-0.5c0.1-0.7,0.2-1.4,0.3-2.1c0.5-6.2-3.8-12.7-9.8-14.4l0.8-2.8c5.5,1.6,9.8,6,11.4,11.5
	c2.9-4.9,7.7-8.4,13.3-9.6l0.6,2.9c-6.5,1.5-11.6,6.5-13.2,12.9C411.1,43.7,411,44.5,410.8,45.2z"/>
<path class="st22" d="M681.8,25.2l-2.9-0.5c0.1-0.7,0.2-1.4,0.3-2.1c0.5-6.2-3.8-12.7-9.8-14.4l0.8-2.8c5.5,1.6,9.8,6,11.4,11.5
	c2.9-4.9,7.7-8.4,13.3-9.6l0.6,2.9c-6.5,1.5-11.6,6.5-13.2,12.9C682.1,23.7,682,24.5,681.8,25.2z"/>
<g class="st0">
	
		<linearGradient id="SVGID_13_" gradientUnits="userSpaceOnUse" x1="138.38" y1="504.32" x2="138.38" y2="638.32" gradientTransform="matrix(1 0 0 -1 0 648)">
		<stop  offset="0" style="stop-color:#808080;stop-opacity:0.25"/>
		<stop  offset="0.54" style="stop-color:#808080;stop-opacity:0.12"/>
		<stop  offset="1" style="stop-color:#808080;stop-opacity:0.1"/>
	</linearGradient>
	<circle class="st25" cx="138.4" cy="76.7" r="67"/>
</g>
<circle class="st5" cx="138.4" cy="76.7" r="62"/>
</svg>
