<?xml version="1.0" encoding="utf-8"?>
<!-- Generator: Adobe Illustrator 22.1.0, SVG Export Plug-In . SVG Version: 6.00 Build 0)  -->
<svg version="1.1" id="speedometer-icon" xmlns="http://www.w3.org/2000/svg" xmlns:xlink="http://www.w3.org/1999/xlink" x="0px"
	 y="0px" viewBox="0 0 123.976 123.976" enable-background="new 0 0 123.976 123.976" xml:space="preserve">
<g>
	<g>
		<g>
			<path fill="#0075D5" stroke="#FFFFFF" stroke-miterlimit="10" d="M61.988,0.5C28.0823,0.5,0.5,28.0843,0.5,61.988v1.9835h31.8409
				c0.238,3.5921,1.079,7.0711,2.5904,10.3657L3.5427,105.7258C1.581,107.6914,0.5,110.3017,0.5,113.0766
				c0,5.7343,4.6652,10.3994,10.3974,10.3994c2.7789,0,5.3911-1.081,7.3528-3.0466l31.3867-31.3867
				c3.8995,1.7911,8.047,2.6975,12.3512,2.6975c15.737,0,28.6237-12.2877,29.6511-27.7688h31.8369V61.988
				C123.476,28.0843,95.8937,0.5,61.988,0.5z M61.988,87.7733c-4.1494,0-8.1323-0.9739-11.8394-2.8939l-1.2873-0.6684
				l-33.4177,33.4157c-1.2119,1.2139-2.8265,1.8823-4.5461,1.8823c-3.5465,0-6.4305-2.886-6.4305-6.4324
				c0-1.7177,0.6684-3.3323,1.8823-4.5481L39.765,75.1127l-0.6684-1.2873c-1.6106-3.1101-2.5131-6.4205-2.7769-9.8539h7.9339
				c0.9898,8.9118,8.5607,15.8679,17.7343,15.8679s16.7446-6.9561,17.7343-15.8679h7.9498
				C86.6526,77.2628,75.5352,87.7733,61.988,87.7733z M69.6403,60.0045H54.3357c0.8866-3.4116,3.965-5.9505,7.6523-5.9505
				C65.6753,54.0541,68.7537,56.5929,69.6403,60.0045z M67.7798,51.6005l21.4454-16.8497L72.3755,56.1962
				C71.2985,54.2722,69.7038,52.6775,67.7798,51.6005z M75.7137,63.9715c-0.9679,6.7181-6.7458,11.9009-13.7257,11.9009
				s-12.7578-5.1828-13.7257-11.9009H75.7137z M74.4264,60.0045L94.418,34.5624c1.1127-1.4182,0.9898-3.4473-0.2856-4.7207
				c-1.2754-1.2754-3.3025-1.4003-4.7227-0.2817L63.2039,50.1486c-0.3987-0.0397-0.8053-0.0615-1.2159-0.0615
				c-5.885,0-10.7723,4.2982-11.7224,9.9174H4.5007C5.55,29.203,30.9346,4.467,61.988,4.467s56.4381,24.736,57.4873,55.5375H74.4264
				z"/>
			<rect x="60.0045" y="8.4339" fill="#0075D5" stroke="#FFFFFF" stroke-miterlimit="10" width="3.967" height="3.967"/>
			
				<rect x="40.2693" y="12.3625" transform="matrix(0.924 -0.3824 0.3824 0.924 -2.2746 17.2478)" fill="#0075D5" stroke="#FFFFFF" stroke-miterlimit="10" width="3.967" height="3.967"/>
			
				<rect x="23.5368" y="23.5385" transform="matrix(0.7071 -0.7071 0.7071 0.7071 -10.572 25.5208)" fill="#0075D5" stroke="#FFFFFF" stroke-miterlimit="10" width="3.9669" height="3.9669"/>
			
				<rect x="12.3577" y="40.2717" transform="matrix(0.3828 -0.9238 0.9238 0.3828 -30.1852 39.3281)" fill="#0075D5" stroke="#FFFFFF" stroke-miterlimit="10" width="3.9669" height="3.9669"/>
			
				<rect x="107.6437" y="40.2563" transform="matrix(0.9238 -0.3828 0.3828 0.9238 -7.8192 45.184)" fill="#0075D5" stroke="#FFFFFF" stroke-miterlimit="10" width="3.9669" height="3.9669"/>
			
				<rect x="96.4632" y="23.5459" transform="matrix(0.7071 -0.7071 0.7071 0.7071 10.7824 77.0897)" fill="#0075D5" stroke="#FFFFFF" stroke-miterlimit="10" width="3.9669" height="3.9669"/>
			
				<rect x="79.7406" y="12.3579" transform="matrix(0.3824 -0.924 0.924 0.3824 37.2215 84.37)" fill="#0075D5" stroke="#FFFFFF" stroke-miterlimit="10" width="3.967" height="3.967"/>
		</g>
	</g>
</g>
</svg>
