<?xml version="1.0" encoding="utf-8"?>
<!-- Generator: Adobe Illustrator 22.1.0, SVG Export Plug-In . SVG Version: 6.00 Build 0)  -->
<svg version="1.1" id="_x36_1f8f3fd-6b56-45c5-89f2-afa0c413a7fa"
	 xmlns="http://www.w3.org/2000/svg" xmlns:xlink="http://www.w3.org/1999/xlink" x="0px" y="0px" viewBox="0 0 925.2 770.1"
	 style="enable-background:new 0 0 925.2 770.1;" xml:space="preserve">
<style type="text/css">
	.st0{opacity:0.7;}
	.st1{fill:url(#SVGID_1_);}
	.st2{fill:#535461;}
	.st3{opacity:0.1;}
	.st4{fill:#E0E0E0;}
	.st5{fill:url(#SVGID_2_);}
	.st6{fill:url(#SVGID_3_);}
	.st7{fill:url(#SVGID_4_);}
	.st8{fill:url(#SVGID_5_);}
	.st9{fill:#EEEEEE;}
	.st10{fill:#0074DC;}
	.st11{fill:url(#SVGID_6_);}
	.st12{fill:url(#SVGID_7_);}
	.st13{fill:url(#SVGID_8_);}
	.st14{fill:url(#SVGID_9_);}
	.st15{fill:url(#SVGID_10_);}
	.st16{fill:url(#SVGID_11_);}
	.st17{fill:url(#SVGID_12_);}
	.st18{fill:url(#SVGID_13_);}
	.st19{fill:url(#SVGID_14_);}
	.st20{fill:url(#SVGID_15_);}
	.st21{fill:url(#SVGID_16_);}
	.st22{fill:url(#SVGID_17_);}
	.st23{fill:url(#SVGID_18_);}
	.st24{fill:url(#SVGID_19_);}
	.st25{fill:url(#SVGID_20_);}
	.st26{fill:url(#SVGID_21_);}
	.st27{opacity:0.4;}
	.st28{fill:url(#SVGID_22_);}
	.st29{opacity:0.2;fill:#0074DC;enable-background:new    ;}
	.st30{opacity:5.000000e-02;fill:#0074DC;enable-background:new    ;}
	.st31{opacity:0.25;fill:#535461;enable-background:new    ;}
	.st32{fill:url(#SVGID_23_);}
	.st33{fill:url(#SVGID_24_);}
	.st34{opacity:0.1;fill:#0074DC;enable-background:new    ;}
	.st35{fill:#0D2E45;}
</style>
<title>To the stars</title>
<g class="st0">
	
		<linearGradient id="SVGID_1_" gradientUnits="userSpaceOnUse" x1="580.7594" y1="778.95" x2="580.7594" y2="133.0559" gradientTransform="matrix(1 0 0 1 -137.41 -84.95)">
		<stop  offset="0" style="stop-color:#808080;stop-opacity:0.25"/>
		<stop  offset="0.54" style="stop-color:#808080;stop-opacity:0.12"/>
		<stop  offset="1" style="stop-color:#808080;stop-opacity:0.1"/>
	</linearGradient>
	<path class="st1" d="M584.6,346.6c0.1-24.4-5.8-48.4-17-70c-5.3-10.2-10.2-16.5-14-20.3c-2.9-3.1-7.5-4-11.4-2.2
		c-1.5,0.5-2.9,1.4-4,2.6c-5.1,5.2-9.7,12.2-13.7,19.6c-11.8,22.1-18,46.8-17.9,71.9v15.1H497v-175c0-36.7-8.2-72.9-24.3-105
		c-7.6-15.2-14.6-24.7-19.9-30.5c-5-5.7-13.8-6.3-19.5-1.3c-0.5,0.4-0.9,0.8-1.3,1.3c-7.2,7.9-13.8,18.3-19.5,29.3
		c-16.9,32.8-25.5,70-25.5,107.8v173.4h-8.3v-15.8c0.1-25.1-6-49.8-17.9-71.9c-4-7.4-8.6-14.3-13.6-19.6c-3-3.2-7.7-4-11.6-2.1
		l0.4,0.2c-1.2,0.5-2.3,1.3-3.3,2.3c-3.8,3.9-8.6,10.2-14,20.3c-11.2,21.6-17.1,45.6-17,70v261.6h29.8l-3.2,21.5V694h24.4v-64.3
		l-3.2-21.5h29.4V370h8.3v237.2H411l-3.4,22.6V694H432v-64.3l-3.4-22.6h32.1l-3.4,22.6V694h24.4v-64.3l-3.4-22.6h19V370h9.7v238.6
		h7.8v-0.4h25.9l-3.2,21.5V694h24.4v-64.3l-3.2-21.5H585V346.6H584.6z"/>
</g>
<polygon class="st2" points="357.4,617.2 334.4,617.2 338.5,589.2 353.3,589.2 "/>
<g class="st3">
	<polygon points="337.3,600.3 354.5,600.3 353.3,592.5 338.5,592.5 	"/>
</g>
<polygon class="st2" points="555.2,617.2 532.1,617.2 536.2,589.2 551.1,589.2 "/>
<g class="st3">
	<polygon points="535.1,600.3 552.2,600.3 551.1,592.5 536.2,592.5 	"/>
</g>
<polygon class="st2" points="432.4,617.2 409.4,617.2 413.5,589.2 428.3,589.2 "/>
<g class="st3">
	<polygon points="412.3,600.3 429.5,600.3 428.3,592.5 413.5,592.5 	"/>
</g>
<polygon class="st2" points="479.4,617.2 456.3,617.2 460.4,589.2 475.3,589.2 "/>
<g class="st3">
	<polygon points="459.3,600.3 476.4,600.3 475.3,592.5 460.4,592.5 	"/>
</g>
<rect x="357.4" y="357.6" class="st2" width="164.8" height="6.6"/>
<path class="st4" d="M547.7,253.5c-3.4-3.8-9.3-4.1-13.1-0.6c-0.2,0.2-0.4,0.4-0.6,0.6c-4.8,5.1-9.1,11.9-12.9,19.1
	c-11.2,21.6-17,45.6-16.9,70v253.7h72.9V341.5c0.1-23.7-5.4-47.1-16.1-68.2C555.9,263.4,551.3,257.3,547.7,253.5z"/>
<path class="st4" d="M338.6,253.5c3.4-3.8,9.3-4.1,13.1-0.6c0.2,0.2,0.4,0.4,0.6,0.6c4.8,5.1,9.1,11.9,12.9,19.1
	c11.2,21.6,17,45.6,16.9,70v253.7h-72.9V341.5c-0.1-23.7,5.4-47.1,16.1-68.2C330.4,263.4,335,257.3,338.6,253.5z"/>
<polygon class="st2" points="309.6,346.9 327,347 327,368.4 309.6,368.4 "/>
<polygon class="st2" points="364.9,346.9 382.2,347 382.2,368.4 364.9,368.4 "/>
<polygon class="st2" points="504.1,346.9 521.4,347 521.4,368.4 504.1,368.4 "/>
<polygon class="st2" points="559.3,346.9 576.6,347 576.6,368.4 559.3,368.4 "/>
<g class="st3">
	<path d="M365.2,272.2c-3.8-7.2-8.1-14-12.9-19.1c-2.8-3.1-7.3-3.9-11-2.1c1,0.5,2,1.2,2.8,2.1c4.8,5.1,9.1,11.9,12.9,19.1
		c11.2,21.6,17,45.6,16.9,70v253.7h8.2V342.3C382.3,317.9,376.5,293.9,365.2,272.2z"/>
</g>
<g class="st3">
	<path d="M527.6,272.9c3.8-7.2,8.1-14,12.9-19.1c0.9-1,2-1.7,3.2-2.3c-3.7-1.6-7.9-0.7-10.6,2.3c-4.8,5.1-9.1,11.9-12.9,19.1
		c-11.2,21.6-17,45.6-16.9,70v253.7h7.4V343C510.6,318.6,516.4,294.6,527.6,272.9z"/>
</g>
<linearGradient id="SVGID_2_" gradientUnits="userSpaceOnUse" x1="345.95" y1="637.2" x2="345.95" y2="699.8" gradientTransform="matrix(1 0 0 1 0 -20)">
	<stop  offset="0" style="stop-color:#E0E0E0"/>
	<stop  offset="0.31" style="stop-color:#FCCC63"/>
	<stop  offset="0.77" style="stop-color:#F55F44"/>
</linearGradient>
<rect x="334.4" y="617.2" class="st5" width="23.1" height="62.6"/>
<linearGradient id="SVGID_3_" gradientUnits="userSpaceOnUse" x1="420.95" y1="637.2" x2="420.95" y2="699.8" gradientTransform="matrix(1 0 0 1 0 -20)">
	<stop  offset="0" style="stop-color:#E0E0E0"/>
	<stop  offset="0.31" style="stop-color:#FCCC63"/>
	<stop  offset="0.77" style="stop-color:#F55F44"/>
</linearGradient>
<rect x="409.4" y="617.2" class="st6" width="23.1" height="62.6"/>
<linearGradient id="SVGID_4_" gradientUnits="userSpaceOnUse" x1="467.85" y1="637.2" x2="467.85" y2="699.8" gradientTransform="matrix(1 0 0 1 0 -20)">
	<stop  offset="0" style="stop-color:#E0E0E0"/>
	<stop  offset="0.31" style="stop-color:#FCCC63"/>
	<stop  offset="0.77" style="stop-color:#F55F44"/>
</linearGradient>
<rect x="456.3" y="617.2" class="st7" width="23.1" height="62.6"/>
<linearGradient id="SVGID_5_" gradientUnits="userSpaceOnUse" x1="543.65" y1="637.2" x2="543.65" y2="699.8" gradientTransform="matrix(1 0 0 1 0 -20)">
	<stop  offset="0" style="stop-color:#E0E0E0"/>
	<stop  offset="0.31" style="stop-color:#FCCC63"/>
	<stop  offset="0.77" style="stop-color:#F55F44"/>
</linearGradient>
<rect x="532.1" y="617.2" class="st8" width="23.1" height="62.6"/>
<path class="st9" d="M452.3,54.6c-4.6-5.4-12.7-6.1-18.1-1.6c-0.6,0.5-1.1,1-1.6,1.6c-6.8,7.7-13,17.8-18.4,28.6
	c-16,31.9-24.1,68.2-24.1,104.9v407.1h104.1V186.5c0-35.7-7.8-71-23-102.2C463.9,69.5,457.4,60.3,452.3,54.6z"/>
<path class="st10" d="M425.2,99.8h32.3c6.1,0,11,4.9,11,11v2.9c0,6.1-4.9,11-11,11h-32.3c-6.1,0-11-4.9-11-11v-2.9
	C414.2,104.8,419.2,99.8,425.2,99.8z"/>
<g class="st0">
	
		<linearGradient id="SVGID_6_" gradientUnits="userSpaceOnUse" x1="580.6003" y1="855.1501" x2="580.6003" y2="667.8892" gradientTransform="matrix(1 0 0 1 -137.41 -84.95)">
		<stop  offset="0" style="stop-color:#808080;stop-opacity:0.25"/>
		<stop  offset="0.54" style="stop-color:#808080;stop-opacity:0.12"/>
		<stop  offset="1" style="stop-color:#808080;stop-opacity:0.1"/>
	</linearGradient>
	<path class="st11" d="M684.6,673L684.6,673c-7.5-45.2-50.2-75.8-95.5-68.3c-40.2,6.7-69.7,41.6-69.4,82.4c0,0.4,0,0.8,0,1.2l0,0
		c-3.1,0.5-6.1,1.1-9.1,2c-10.2-40.6-51.4-65.3-92-55.1c-22.4,5.6-41,21.2-50.6,42.2c-6.7-2.6-13.8-4.2-20.9-4.8l0,0
		c-1.1-6.5-3.1-12.8-5.7-18.8c-2.7-41.8-38.8-73.4-80.6-70.7c-37.2,2.4-67.1,31.6-70.5,68.7c-3.9,8.3-6.4,17.2-7.4,26.4l0,0
		c-36,15-54.8,54.7-43.5,92H747c12.1-40.1-10.6-82.4-50.7-94.5C692.4,674.4,688.5,673.5,684.6,673z"/>
</g>
<linearGradient id="SVGID_7_" gradientUnits="userSpaceOnUse" x1="272.7" y1="606.5" x2="272.7" y2="752.1" gradientTransform="matrix(1 0 0 1 0 -20)">
	<stop  offset="0" style="stop-color:#F2F2F2"/>
	<stop  offset="0.31" style="stop-color:#E6E6E6"/>
	<stop  offset="0.77" style="stop-color:#CCCCCC"/>
</linearGradient>
<circle class="st12" cx="272.7" cy="659.3" r="72.8"/>
<linearGradient id="SVGID_8_" gradientUnits="userSpaceOnUse" x1="272.4" y1="626.9" x2="272.4" y2="786.5" gradientTransform="matrix(1 0 0 1 0 -20)">
	<stop  offset="0" style="stop-color:#F2F2F2"/>
	<stop  offset="0.31" style="stop-color:#E6E6E6"/>
	<stop  offset="0.77" style="stop-color:#CCCCCC"/>
</linearGradient>
<circle class="st13" cx="272.4" cy="686.7" r="79.8"/>
<linearGradient id="SVGID_9_" gradientUnits="userSpaceOnUse" x1="596.5" y1="626.9" x2="596.5" y2="786.5" gradientTransform="matrix(1 0 0 1 0 -20)">
	<stop  offset="0" style="stop-color:#F2F2F2"/>
	<stop  offset="0.31" style="stop-color:#E6E6E6"/>
	<stop  offset="0.77" style="stop-color:#CCCCCC"/>
</linearGradient>
<circle class="st14" cx="596.5" cy="686.7" r="79.8"/>
<linearGradient id="SVGID_10_" gradientUnits="userSpaceOnUse" x1="592.4" y1="640.8" x2="592.4" y2="786.4" gradientTransform="matrix(1 0 0 1 0 -20)">
	<stop  offset="0" style="stop-color:#F2F2F2"/>
	<stop  offset="0.31" style="stop-color:#E6E6E6"/>
	<stop  offset="0.77" style="stop-color:#CCCCCC"/>
</linearGradient>
<circle class="st15" cx="592.4" cy="693.6" r="72.8"/>
<linearGradient id="SVGID_11_" gradientUnits="userSpaceOnUse" x1="574.6751" y1="719.4802" x2="574.6751" y2="851.35" gradientTransform="matrix(1 0 0 1 -137.41 -84.95)">
	<stop  offset="0" style="stop-color:#F2F2F2"/>
	<stop  offset="0.31" style="stop-color:#E6E6E6"/>
	<stop  offset="0.77" style="stop-color:#CCCCCC"/>
</linearGradient>
<path class="st16" d="M510.1,707.4c0,23.4-11.2,45.3-30.1,59h-85.4c-32.6-23.6-39.9-69.1-16.4-101.7c23.6-32.6,69.1-39.9,101.7-16.4
	C498.9,662,510.1,684,510.1,707.4L510.1,707.4z"/>
<linearGradient id="SVGID_12_" gradientUnits="userSpaceOnUse" x1="482.248" y1="757.4501" x2="482.248" y2="851.35" gradientTransform="matrix(1 0 0 1 -137.41 -84.95)">
	<stop  offset="0" style="stop-color:#F2F2F2"/>
	<stop  offset="0.31" style="stop-color:#E6E6E6"/>
	<stop  offset="0.77" style="stop-color:#CCCCCC"/>
</linearGradient>
<path class="st17" d="M417.6,745.3c0,7.2-1,14.3-3.1,21.1H275.1 M275.1,766.4c-11.6-38.5,10.1-79.1,48.6-90.8
	c6.7-2,13.6-3.1,20.6-3.1h0.5c2,0,4.1,0.1,6.1,0.2c6.9,0.6,13.6,2.1,20.1,4.6c28.1,10.8,46.7,37.9,46.7,68L275.1,766.4z"/>
<linearGradient id="SVGID_13_" gradientUnits="userSpaceOnUse" x1="665.06" y1="772" x2="665.06" y2="851.3" gradientTransform="matrix(1 0 0 1 -137.41 -84.95)">
	<stop  offset="0" style="stop-color:#F2F2F2"/>
	<stop  offset="0.31" style="stop-color:#E6E6E6"/>
	<stop  offset="0.77" style="stop-color:#CCCCCC"/>
</linearGradient>
<path class="st18" d="M600.5,759.9c0,2.2-0.1,4.3-0.3,6.5v0.1H455.1c-0.2-2.2-0.3-4.3-0.3-6.5c0-36,26.3-66.6,61.9-72
	c3.6-0.5,7.2-0.8,10.9-0.8c1.9,0,3.7,0.1,5.5,0.2c26.6,2,49.9,18.4,60.9,42.7c0.3,0.7,0.6,1.3,0.9,2
	C598.6,740.8,600.5,750.3,600.5,759.9z"/>
<linearGradient id="SVGID_14_" gradientUnits="userSpaceOnUse" x1="802.7004" y1="757.45" x2="802.7004" y2="851.35" gradientTransform="matrix(1 0 0 1 -137.41 -84.95)">
	<stop  offset="0" style="stop-color:#F2F2F2"/>
	<stop  offset="0.31" style="stop-color:#E6E6E6"/>
	<stop  offset="0.77" style="stop-color:#CCCCCC"/>
</linearGradient>
<path class="st19" d="M738.1,745.3c0,7.2-1,14.3-3.1,21.1H595.6l0,0c-3.4-11.2-4-23-1.9-34.5c0.1-0.6,0.2-1.3,0.4-1.9
	c7.2-33.6,36.9-57.5,71.2-57.5c2.3,0,4.5,0.1,6.8,0.3c1,0.1,2,0.2,3,0.3C711.2,678,738.1,708.9,738.1,745.3z"/>
<linearGradient id="SVGID_15_" gradientUnits="userSpaceOnUse" x1="358.4445" y1="757.3995" x2="358.4445" y2="851.3501" gradientTransform="matrix(1 0 0 1 -137.41 -84.95)">
	<stop  offset="0" style="stop-color:#F2F2F2"/>
	<stop  offset="0.31" style="stop-color:#E6E6E6"/>
	<stop  offset="0.77" style="stop-color:#CCCCCC"/>
</linearGradient>
<path class="st20" d="M290.7,766.4c0.2-0.8,0.5-1.5,0.7-2.3c10.4-38.9-12.7-78.8-51.6-89.2c-12.5-3.3-25.7-3.3-38.2,0.2
	c-2.9,0.8-5.7,1.8-8.5,2.9c-34.6,14.4-52.6,52.6-41.8,88.4L290.7,766.4L290.7,766.4z"/>
<g class="st0">
	
		<linearGradient id="SVGID_16_" gradientUnits="userSpaceOnUse" x1="710.4" y1="636.63" x2="710.4" y2="609.91" gradientTransform="matrix(1 0 0 1 0 -20)">
		<stop  offset="0" style="stop-color:#808080;stop-opacity:0.25"/>
		<stop  offset="0.54" style="stop-color:#808080;stop-opacity:0.12"/>
		<stop  offset="1" style="stop-color:#808080;stop-opacity:0.1"/>
	</linearGradient>
	<circle class="st21" cx="710.4" cy="603.3" r="13.4"/>
</g>
<linearGradient id="SVGID_17_" gradientUnits="userSpaceOnUse" x1="710.4" y1="610.9" x2="710.4" y2="635.66" gradientTransform="matrix(1 0 0 1 0 -20)">
	<stop  offset="0" style="stop-color:#F2F2F2"/>
	<stop  offset="0.31" style="stop-color:#E6E6E6"/>
	<stop  offset="0.77" style="stop-color:#CCCCCC"/>
</linearGradient>
<circle class="st22" cx="710.4" cy="603.3" r="12.4"/>
<g class="st0">
	
		<linearGradient id="SVGID_18_" gradientUnits="userSpaceOnUse" x1="771.6" y1="766.75" x2="771.6" y2="737.61" gradientTransform="matrix(1 0 0 1 0 -20)">
		<stop  offset="0" style="stop-color:#808080;stop-opacity:0.25"/>
		<stop  offset="0.54" style="stop-color:#808080;stop-opacity:0.12"/>
		<stop  offset="1" style="stop-color:#808080;stop-opacity:0.1"/>
	</linearGradient>
	<circle class="st23" cx="771.6" cy="732.2" r="14.6"/>
</g>
<linearGradient id="SVGID_19_" gradientUnits="userSpaceOnUse" x1="771.6" y1="738.34" x2="771.6" y2="766.02" gradientTransform="matrix(1 0 0 1 0 -20)">
	<stop  offset="0" style="stop-color:#F2F2F2"/>
	<stop  offset="0.31" style="stop-color:#E0E0E0"/>
	<stop  offset="0.77" style="stop-color:#B3B3B3"/>
</linearGradient>
<circle class="st24" cx="771.6" cy="732.2" r="13.8"/>
<g class="st0">
	
		<linearGradient id="SVGID_20_" gradientUnits="userSpaceOnUse" x1="148.2" y1="685.16" x2="148.2" y2="653.16" gradientTransform="matrix(1 0 0 1 0 -20)">
		<stop  offset="0" style="stop-color:#808080;stop-opacity:0.25"/>
		<stop  offset="0.54" style="stop-color:#808080;stop-opacity:0.12"/>
		<stop  offset="1" style="stop-color:#808080;stop-opacity:0.1"/>
	</linearGradient>
	<circle class="st25" cx="148.2" cy="649.2" r="16"/>
</g>
<linearGradient id="SVGID_21_" gradientUnits="userSpaceOnUse" x1="148.2" y1="653.86" x2="148.2" y2="684.46" gradientTransform="matrix(1 0 0 1 0 -20)">
	<stop  offset="0" style="stop-color:#F2F2F2"/>
	<stop  offset="0.31" style="stop-color:#E6E6E6"/>
	<stop  offset="0.77" style="stop-color:#CCCCCC"/>
</linearGradient>
<circle class="st26" cx="148.2" cy="649.2" r="15.3"/>
<g class="st27">
	
		<linearGradient id="SVGID_22_" gradientUnits="userSpaceOnUse" x1="853.6797" y1="172.85" x2="853.6797" y2="85.0039" gradientTransform="matrix(1 0 0 1 -137.41 -84.95)">
		<stop  offset="0" style="stop-color:#808080;stop-opacity:0.25"/>
		<stop  offset="0.54" style="stop-color:#808080;stop-opacity:0.12"/>
		<stop  offset="1" style="stop-color:#808080;stop-opacity:0.1"/>
	</linearGradient>
	<path class="st28" d="M751.3,17.5L751.3,17.5c-3.5-4.7-8-8.6-13.1-11.6l0,0c-21-12.1-47.9-4.8-60,16.2s-4.8,47.9,16.2,60
		c6.6,3.8,14.1,5.8,21.8,5.8c0.9,0,1.9,0,2.8-0.1c24.2-1.5,42.6-22.4,41.1-46.6C759.5,32.6,756.5,24.4,751.3,17.5L751.3,17.5z"/>
</g>
<path class="st29" d="M757.8,43.9c0,21.9-17,40-38.9,41.4c-0.9,0.1-1.8,0.1-2.6,0.1c-22.9,0-41.5-18.6-41.5-41.5
	s18.6-41.5,41.5-41.5c7.3,0,14.4,1.9,20.7,5.5l0,0c4.8,2.8,9,6.5,12.4,10.9l0,0C754.8,26.1,757.8,34.9,757.8,43.9z"/>
<path class="st30" d="M706,17.6c-2.1,0.9-4.2,2-6.2,3.3c-1.3,0.7-2.5,1.8-3.3,3c-0.9,1.3-0.9,2.9-0.1,4.2c1,1.4,3,1.6,4.7,1.7
	c3.1,0.7,6.4-0.4,8.5-2.8l3.6-3.2c1.2-1.1,2.6-2.7,2.1-4.2c-0.4-1.2-1.8-1.8-3-2c-3.1-0.6-6.3,0-8.9,1.6"/>
<circle class="st30" cx="691.1" cy="60.3" r="2.2"/>
<circle class="st30" cx="735.6" cy="46.5" r="8"/>
<path class="st30" d="M749.4,18.9L749.4,18.9c-0.1,6-5.1,10.9-11.1,10.8s-10.9-5.1-10.8-11.1c0.1-5.4,4.1-10,9.5-10.7l0,0
	C741.8,10.7,746,14.5,749.4,18.9z"/>
<path class="st30" d="M750.2,67.8c-7.2,10.3-18.8,16.7-31.3,17.5c-0.1-0.6-0.1-1.1-0.1-1.7c0-10.9,8.8-19.7,19.7-19.7
	C742.7,64,746.8,65.3,750.2,67.8L750.2,67.8z"/>
<circle class="st31" cx="722.8" cy="344.7" r="5.1"/>
<circle class="st31" cx="42.8" cy="478.7" r="5.1"/>
<circle class="st31" cx="919.8" cy="507.7" r="5.1"/>
<circle class="st31" cx="288.7" cy="266.1" r="5.1"/>
<circle class="st31" cx="272" cy="148.8" r="5.1"/>
<circle class="st31" cx="127.8" cy="381.1" r="5.1"/>
<polygon class="st31" points="849.2,387.1 844.6,387.1 844.6,382.6 842.8,382.6 842.8,387.1 838.2,387.1 838.2,389 842.8,389 
	842.8,393.5 844.6,393.5 844.6,389 849.2,389 "/>
<polygon class="st31" points="925.2,230.1 920.6,230.1 920.6,225.6 918.8,225.6 918.8,230.1 914.2,230.1 914.2,232 918.8,232 
	918.8,236.5 920.6,236.5 920.6,232 925.2,232 "/>
<polygon class="st31" points="601.5,142.4 597,142.4 597,137.9 595.2,137.9 595.2,142.4 590.6,142.4 590.6,144.3 595.2,144.3 
	595.2,148.8 597,148.8 597,144.3 601.5,144.3 "/>
<polygon class="st31" points="799.7,361.6 795.1,361.6 795.1,357.1 793.3,357.1 793.3,361.6 788.7,361.6 788.7,363.5 793.3,363.5 
	793.3,368 795.1,368 795.1,363.5 799.7,363.5 "/>
<polygon class="st31" points="633.6,512.4 629.1,512.4 629.1,507.9 627.2,507.9 627.2,512.4 622.7,512.4 622.7,514.2 627.2,514.2 
	627.2,518.8 629.1,518.8 629.1,514.2 633.6,514.2 "/>
<polygon class="st31" points="168.9,201.4 164.4,201.4 164.4,196.9 162.5,196.9 162.5,201.4 158,201.4 158,203.2 162.5,203.2 
	162.5,207.8 164.4,207.8 164.4,203.2 168.9,203.2 "/>
<polygon class="st31" points="10.9,260.4 6.4,260.4 6.4,255.9 4.5,255.9 4.5,260.4 0,260.4 0,262.2 4.5,262.2 4.5,266.8 6.4,266.8 
	6.4,262.2 10.9,262.2 "/>
<polygon class="st31" points="231.6,446.1 227,446.1 227,441.6 225.2,441.6 225.2,446.1 220.6,446.1 220.6,448 225.2,448 
	225.2,452.5 227,452.5 227,448 231.6,448 "/>
<linearGradient id="SVGID_23_" gradientUnits="userSpaceOnUse" x1="771.6" y1="738.34" x2="771.6" y2="766.02" gradientTransform="matrix(1 0 0 1 0 -20)">
	<stop  offset="0" style="stop-color:#F2F2F2"/>
	<stop  offset="0.31" style="stop-color:#E6E6E6"/>
	<stop  offset="0.77" style="stop-color:#CCCCCC"/>
</linearGradient>
<circle class="st32" cx="771.6" cy="732.2" r="13.8"/>
<g class="st27">
	
		<linearGradient id="SVGID_24_" gradientUnits="userSpaceOnUse" x1="389.7203" y1="466.7568" x2="389.7203" y2="424.9202" gradientTransform="matrix(1 0 0 1 -137.41 -84.95)">
		<stop  offset="0" style="stop-color:#808080;stop-opacity:0.25"/>
		<stop  offset="0.54" style="stop-color:#808080;stop-opacity:0.12"/>
		<stop  offset="1" style="stop-color:#808080;stop-opacity:0.1"/>
	</linearGradient>
	<path class="st33" d="M269,348.3L269,348.3c-1.7-2.2-3.8-4.1-6.2-5.5l0,0c-10-5.8-22.8-2.4-28.6,7.6s-2.4,22.8,7.6,28.6
		c3.2,1.9,6.9,2.9,10.6,2.8c0.4,0,0.9,0,1.3,0c11.5-0.7,20.3-10.7,19.5-22.2C272.9,355.5,271.4,351.6,269,348.3L269,348.3z"/>
</g>
<path class="st29" d="M272,360.9c0,10.4-8.1,19.1-18.5,19.7c-0.4,0-0.8,0-1.2,0c-10.9,0-19.8-8.9-19.7-19.8
	c0-10.9,8.9-19.8,19.8-19.7c3.5,0,6.9,0.9,9.8,2.6l0,0c2.3,1.3,4.3,3.1,5.9,5.2l0,0C270.6,352.4,272,356.6,272,360.9z"/>
<path class="st34" d="M247.4,348.4c-1,0.4-2,1-3,1.5c-0.6,0.3-1.2,0.8-1.6,1.4c-0.4,0.6-0.4,1.4,0,2c0.6,0.6,1.4,0.9,2.2,0.8
	c1.5,0.3,3-0.2,4-1.3l1.7-1.5c0.6-0.5,1.2-1.3,1-2c-0.3-0.6-0.8-0.9-1.4-1c-1.5-0.3-3,0-4.2,0.8"/>
<circle class="st34" cx="240.3" cy="368.7" r="1"/>
<circle class="st34" cx="261.5" cy="362.1" r="3.8"/>
<path class="st34" d="M268,349L268,349c0,2.9-2.4,5.2-5.3,5.1c-2.9,0-5.2-2.4-5.1-5.3c0-2.6,2-4.7,4.5-5.1l0,0
	C264.4,345.2,266.4,346.9,268,349z"/>
<path class="st34" d="M268.4,372.3c-3.4,4.9-8.9,8-14.9,8.4c0-0.3,0-0.5,0-0.8c0-5.2,4.2-9.4,9.3-9.4
	C264.9,370.4,266.9,371.1,268.4,372.3L268.4,372.3z"/>
<g class="st3">
	<rect x="390.6" y="202.1" width="103" height="4"/>
</g>
<rect x="129.2" y="761.8" class="st35" width="630.4" height="9.2"/>
</svg>
